<svg width="76" height="20" fill="none" xmlns="http://www.w3.org/2000/svg"><g opacity=".2" clip-path="url(#clip0)" fill="#fff"><path d="M2.603 19.055V20h-.43v-.551H.049v-2.505h.458v2.111H1.77v-2.11h.462v2.11h.372zm2.798.004v.39H3.523v-2.505H5.35v.39H3.988v.651h1.21v.383h-1.21v.691H5.4zm3.238-2.115v2.505h-.465v-1.074H6.88v1.074h-.465v-2.505h.465v1.034h1.295v-1.034h.465zm3.015.394h-.83v2.11h-.462v-2.11h-.827v-.394h2.119v.394zm1.925-.394c.217 0 .406.036.566.107a.823.823 0 01.372.308.86.86 0 01.129.476.87.87 0 01-.13.476.823.823 0 01-.371.308c-.16.071-.349.107-.566.107h-.565v.723h-.465v-2.505h1.03zm-.021 1.388c.203 0 .356-.043.461-.129a.447.447 0 00.158-.368.449.449 0 00-.158-.368c-.105-.086-.258-.13-.461-.13h-.544v.995h.544zm6.023.723v.927h-.43v-.533H17.23v.533h-.433l.003-.927h.107c.158-.007.268-.123.33-.347.064-.226.104-.55.118-.97l.028-.794h1.836v2.111h.361zm-1.818-1.273a5.646 5.646 0 01-.08.812c-.04.214-.104.368-.192.461h1.27v-1.717h-.98l-.018.443zm4.628 1.277v.39h-1.879v-2.505h1.83v.39h-1.364v.651h1.21v.383h-1.21v.691h1.413zm3.152-2.115v2.505h-.458v-2.111h-.988l-.021.626c-.012.35-.04.636-.086.855-.045.217-.118.383-.218.498a.528.528 0 01-.415.168c-.063 0-.147-.012-.254-.036l.032-.405c.03.01.067.015.107.015.146 0 .248-.086.308-.258.062-.174.1-.447.114-.82l.036-1.037h1.843zm2.358 2.54c-.255 0-.485-.054-.69-.164a1.248 1.248 0 01-.659-1.123c0-.244.058-.463.175-.659a1.21 1.21 0 01.483-.461c.206-.113.436-.169.691-.169.255 0 .486.056.69.169a1.223 1.223 0 01.659 1.12 1.248 1.248 0 01-.659 1.123c-.204.11-.435.165-.69.165zm0-.407a.916.916 0 00.451-.111.832.832 0 00.315-.315.913.913 0 00.114-.454.893.893 0 00-.114-.451.8.8 0 00-.315-.315.892.892 0 00-.45-.115.893.893 0 00-.452.115.798.798 0 00-.315.314.892.892 0 00-.114.452c0 .166.038.318.114.454a.831.831 0 00.315.315.915.915 0 00.451.11zm4.007-.93c.16.042.282.116.365.221a.594.594 0 01.125.387.6.6 0 01-.243.512c-.162.121-.397.182-.705.182h-1.188v-2.505h1.12c.281 0 .5.056.658.168a.55.55 0 01.237.476.594.594 0 01-.097.34.584.584 0 01-.272.219zm-1.188-.133h.623c.15 0 .264-.03.343-.09.079-.059.118-.147.118-.264 0-.117-.04-.206-.118-.265-.079-.062-.193-.093-.343-.093h-.623v.712zm.716 1.077c.329 0 .494-.124.494-.372 0-.244-.165-.365-.494-.365h-.716v.737h.716zm3.145.394a1.44 1.44 0 01-.69-.165 1.248 1.248 0 01-.659-1.123c0-.244.059-.463.176-.659.114-.196.282-.356.483-.461.205-.113.435-.169.69-.169a1.4 1.4 0 01.69.169 1.225 1.225 0 01.659 1.12 1.248 1.248 0 01-.659 1.123 1.44 1.44 0 01-.69.165zm0-.408a.911.911 0 00.451-.111.832.832 0 00.315-.315.914.914 0 00.115-.454.894.894 0 00-.115-.451.799.799 0 00-.315-.315.891.891 0 00-.45-.115.892.892 0 00-.452.115.798.798 0 00-.315.314.894.894 0 00-.114.452c0 .166.038.318.114.454a.831.831 0 00.316.315.914.914 0 00.45.11zm2.361-2.133h.458v1.779l1.346-1.779h.432v2.505h-.457v-1.775l-1.346 1.775h-.433v-2.505zm1.113-.168c-.215 0-.377-.044-.487-.133-.107-.088-.162-.217-.164-.386h.325a.266.266 0 00.086.204c.055.048.135.072.24.072a.363.363 0 00.24-.072.256.256 0 00.093-.204h.322a.477.477 0 01-.172.386c-.11.089-.27.133-.483.133zm3.806.168h.458v1.779l1.345-1.779h.433v2.505h-.458v-1.775l-1.345 1.775h-.433v-2.505zm5.659 0v2.505h-.466v-1.074H45.76v1.074h-.465v-2.505h.465v1.034h1.295v-1.034h.465zm4.058 1.249c0 .33-.114.59-.343.78-.229.19-.555.295-.977.312v.264h-.43v-.265c-.422-.021-.748-.126-.98-.314-.229-.189-.343-.448-.343-.777 0-.33.114-.588.343-.777.232-.19.558-.297.98-.318v-.254h.43v.254c.422.021.748.128.977.318.229.189.343.448.343.777zm-1.32.726c.286-.021.504-.093.651-.214a.636.636 0 00.222-.516c0-.22-.075-.39-.225-.511-.148-.122-.364-.193-.648-.211v1.452zm-1.299-.726c0 .217.074.386.222.508.15.122.366.194.648.218v-1.452c-.58.043-.87.285-.87.726zm4.761 1.292a1.44 1.44 0 01-.69-.165 1.248 1.248 0 01-.659-1.123c0-.244.059-.463.176-.659.114-.196.282-.356.483-.461.205-.113.435-.169.69-.169.255 0 .486.056.69.169a1.225 1.225 0 01.659 1.12 1.248 1.248 0 01-.658 1.123 1.44 1.44 0 01-.69.165zm0-.408a.913.913 0 00.451-.111.832.832 0 00.315-.315.912.912 0 00.114-.454.893.893 0 00-.114-.451.798.798 0 00-.315-.315.891.891 0 00-.45-.115.892.892 0 00-.451.115.798.798 0 00-.316.314.892.892 0 00-.114.452c0 .166.038.318.114.454a.831.831 0 00.316.315.914.914 0 00.45.11zm3.388-2.133c.217 0 .405.036.565.107a.823.823 0 01.372.308.86.86 0 01.13.476.87.87 0 01-.13.476.825.825 0 01-.372.308 1.38 1.38 0 01-.565.107h-.565v.723h-.466v-2.505h1.03zm-.021 1.388c.202 0 .356-.043.461-.129a.448.448 0 00.157-.368.448.448 0 00-.157-.368c-.105-.086-.259-.13-.461-.13h-.544v.995h.544zm4.322 1.117l-.003-1.66-.823 1.374h-.208l-.823-1.353v1.639h-.44v-2.505h.383l.99 1.657.981-1.657h.38l.007 2.505h-.444zm3.299-.58h-1.252l-.247.58h-.48l1.127-2.505h.458l1.131 2.505h-.487l-.25-.58zm-.154-.365l-.472-1.095-.47 1.095h.942zm4.328.551V20h-.43v-.551h-2.125v-2.505h.458v2.111h1.263v-2.11h.462v2.11h.372zm.923-2.11h.458v1.778l1.345-1.779h.433v2.505h-.458v-1.775l-1.345 1.775h-.433v-2.505zm3.436 0h.458v1.778l1.346-1.779h.432v2.505h-.458v-1.775l-1.345 1.775h-.433v-2.505zM4.108 10.74H2.82v3.836H0V4.557h2.82v3.894h1.36l2.39-3.893h2.977L6.412 9.396l3.164 5.181H6.384l-2.276-3.836z"/><path d="M17.16 12.63h-4.236l-.787 1.947H9.245l4.423-10.02h2.791l4.438 10.02h-2.95l-.787-1.947zm-.83-2.09l-1.288-3.206-1.288 3.207h2.576zm15.12-5.982v10.02h-2.806V6.804h-3.807v7.772h-2.791V4.557h9.404zm2.141 0h2.792v5.883l4.136-5.883h2.663v10.02H40.39v-5.87l-4.123 5.87H33.59V4.557zm19.815 2.247h-3.063v7.772H47.55V6.805h-3.078V4.558h8.932v2.247zm7.717 5.825h-4.237l-.788 1.947h-2.89l4.422-10.02h2.791l4.437 10.02H61.91l-.787-1.947zm-.83-2.09l-1.289-3.206-1.288 3.207h2.576zm15.172-5.982v10.02h-2.791V6.804h-2.877l-.057 1.632c-.048 1.431-.167 2.595-.358 3.492-.181.897-.496 1.594-.945 2.09-.448.486-1.083.73-1.904.73a5.56 5.56 0 01-1.288-.172l.158-2.319c.124.03.252.043.386.043.372 0 .659-.148.859-.443.2-.296.343-.707.43-1.231.085-.535.142-1.227.171-2.076l.143-3.993h8.073zM.012 0h9.534v2.25H.012V0z"/></g><defs><clipPath id="clip0"><path fill="#fff" d="M0 0h75.526v20H0z"/></clipPath></defs></svg>