<svg width="79" height="20" fill="none" xmlns="http://www.w3.org/2000/svg"><g clip-path="url(#clip0)" fill="#fff" fill-opacity=".2"><path d="M47.805 5.678a7.042 7.042 0 00-3.276.85c0-2.964.045-5.54.113-6.528l-6.03 1.173v.551l.593.069c.842.115 1.16.621 1.273 1.747.182 2.184.16 13.84 0 15.701 1.686.404 3.41.62 5.143.644 4.779 0 7.668-2.989 7.668-7.724-.023-3.77-2.367-6.483-5.483-6.483h-.001zm-2.093 13.265a6.703 6.703 0 01-1.024-.093c-.091-1.31-.159-6.712-.137-11.425a3.9 3.9 0 011.411-.23c1.98 0 3.095 2.322 3.095 5.219-.023 3.724-1.388 6.528-3.345 6.528v.001zM15.95 5.815l-.932.253c-.843-2.758-2.14-4.321-4.574-4.321h-3.14c-.136 1.77-.205 4.713-.182 7.77l2.116-.069c1.41-.046 1.98-1.104 2.321-2.644h.796v6.483h-.796c-.341-1.564-.933-2.621-2.344-2.667l-2.093-.069c.022 2.322.091 4.299.182 5.472.136 1.724.614 2.482 1.82 2.666l1.07.115v.782H0v-.781l.842-.115c1.206-.184 1.683-.943 1.82-2.667.228-2.85.273-8.758 0-12.069-.136-1.7-.614-2.46-1.82-2.643L0 1.195V.437h15.86l.09 5.379zm5.075-.299c4.505 0 6.735 3.081 6.735 7.173 0 4.092-2.526 7.218-7.032 7.218-4.505 0-6.758-3.08-6.758-7.149s2.527-7.241 7.054-7.241zm-.228.875c-2.003 0-2.549 2.712-2.549 6.321 0 3.61.888 6.322 2.73 6.322 1.844 0 2.549-2.712 2.549-6.322 0-3.609-.91-6.298-2.753-6.298l.023-.023zm33.584 6.46c0-3.771 2.344-7.312 7.008-7.312 3.777 0 5.575 2.829 5.598 6.53h-8.442c-.091 3.356 1.593 5.838 4.824 5.838 1.41 0 2.184-.345 3.049-1.011l.386.483c-.933 1.31-2.89 2.551-5.483 2.551-4.073-.023-6.94-2.919-6.94-7.08zm4.21-1.726l4.232-.091c.023-1.885-.273-4.598-1.798-4.598-1.524 0-2.411 2.552-2.457 4.667l.023.023zM77.817 9.77l-.682.184c-.729-2.415-1.844-3.426-3.482-3.426-1.092 0-1.866.828-1.866 2.023 0 1.195.888 1.816 3.436 2.805 2.549.989 3.277 1.977 3.277 3.908 0 2.873-2.184 4.643-5.78 4.643a14.046 14.046 0 01-4.754-.85l-.114-3.977.682-.184c.978 2.781 2.275 3.793 3.982 3.793 1.706 0 2.252-1.035 2.252-2.138s-.614-1.724-2.912-2.551c-2.298-.828-3.686-1.725-3.686-4.139 0-2.413 2.047-4.345 5.438-4.345 1.57 0 3.072.277 4.073.737l.136 3.517zm-39.773-.115c-1.82-1.241-3.8-.69-4.186-.023a61.519 61.519 0 00.045 7.356c.091 1.127.432 1.632 1.275 1.747l1.092.069v.782h-8.397v-.781l.592-.069c.841-.115 1.16-.62 1.274-1.747.177-2.64.177-5.29 0-7.931-.091-1.127-.433-1.632-1.274-1.747l-.592-.069V6.69l6.03-1.173-.069 3.173c1.411-3.264 4.188-3.701 5.689-2.781l-1.479 3.747v-.002z"/><path fill-rule="evenodd" clip-rule="evenodd" d="M60.729 2.317h-.337l-.803-1.09-.231.204v.886h-.285V.033h.285v1.126l.195-.217.807-.909h.333l-.896.995.932 1.289zm1.728 0l-.273-.708h-.898l-.27.708h-.287l.884-2.294h.257l.883 2.294h-.296zm-.357-.962l-.254-.692-.108-.342c-.029.115-.061.23-.098.342l-.257.692h.717zm2.348.962h-1.57V2.1L64.07.289h-1.155V.033h1.5V.25l-1.193 1.811h1.226v.256zm1.85 0l-.272-.707h-.898l-.27.707h-.288l.885-2.293h.257l.882 2.293h-.295zm-.358-.962l-.254-.692-.108-.342c-.028.115-.06.23-.097.342l-.257.692h.716zm2.621.962h-.336l-.804-1.09-.23.204v.886h-.285V.033h.284v1.126l.195-.217.807-.909h.334l-.897.995.932 1.289zm2.04 0h-.285V1.252h-1.162v1.065h-.285V.033h.285v.965h1.162V.033h.284v2.284h.001zm1.903-.61a.572.572 0 01-.214.47c-.142.115-.34.172-.595.172-.268 0-.475-.036-.622-.108v-.275c.096.042.201.075.315.098.114.024.221.036.32.036.17 0 .297-.033.383-.098a.322.322 0 00.128-.27.345.345 0 00-.046-.188.446.446 0 00-.156-.138 2.17 2.17 0 00-.33-.145c-.21-.077-.36-.168-.45-.272a.6.6 0 01-.135-.406c0-.178.066-.32.2-.425.132-.105.307-.158.523-.158.227 0 .435.043.625.128l-.088.247a1.407 1.407 0 00-.542-.122.51.51 0 00-.316.088.29.29 0 00-.114.245c0 .075.016.137.044.187a.41.41 0 00.143.135c.066.041.169.087.309.14.169.062.294.122.377.181a.571.571 0 01.182.203c.04.077.059.168.059.275zm1.174.61h-.287V.286h-.708V.033h1.698v.253h-.703v2.031zm2.359 0l-.273-.707h-.898l-.27.707h-.288l.884-2.293h.258l.882 2.293h-.295zm-.358-.962l-.254-.692-.108-.342c-.029.115-.061.23-.098.342l-.257.692h.717zm2.76.962h-.333L76.893.42h-.013l.008.127c.012.19.018.354.018.493v1.277h-.263V.033h.33l.07.11.743 1.16.395.62h.013a10.494 10.494 0 01-.013-.268 9.993 9.993 0 01-.01-.333V.033h.267v2.284h.001z"/></g><defs><clipPath id="clip0"><path fill="#fff" d="M0 0h78.5v20H0z"/></clipPath></defs></svg>