<svg width="30" height="30" fill="none" xmlns="http://www.w3.org/2000/svg"><path d="M10 16.488c0 2.125 2.967 3.693 4.331 4.305a1.615 1.615 0 001.339 0c1.362-.612 4.33-2.187 4.33-4.305v-4.08a1.669 1.669 0 00-1.101-1.57l-2.545-.914a4.008 4.008 0 00-2.711 0l-2.543.915a1.673 1.673 0 00-1.1 1.57v4.079z" stroke="#FE5244" stroke-linecap="round" stroke-linejoin="round"/><path d="M26.25 15A11.25 11.25 0 0115 26.25v0A11.25 11.25 0 013.75 15v0A11.25 11.25 0 0115 3.75v0A11.25 11.25 0 0126.25 15v0z" stroke="#FE5244" stroke-linecap="round" stroke-linejoin="round"/></svg>