<svg width="80" height="12" fill="none" xmlns="http://www.w3.org/2000/svg"><path d="M4.415 11.82H0V.164h4.415v11.658zM6.477.163h4.17l3.331 6.163V.163h3.266v11.658h-3.561L9.76 4.842v6.979H6.477V.163zm17.17 0h3.381v4.451h3.857V.163h3.365v11.658h-3.365V7.223h-3.857v4.598h-3.381V.163zm16.266 8.69c.601.696 1.39 1.044 2.363 1.044.974 0 1.762-.354 2.364-1.06.58-.696.87-1.63.87-2.804v-.13c0-1.131-.285-2.05-.854-2.756-.602-.707-1.406-1.06-2.413-1.06-.995 0-1.794.342-2.396 1.027-.58.674-.87 1.609-.87 2.804v.13c0 1.186.312 2.12.936 2.805zm6.713 1.451C45.51 11.434 44.043 12 42.226 12c-1.816 0-3.276-.565-4.382-1.696-1.094-1.087-1.64-2.5-1.64-4.239v-.13c0-1.761.574-3.185 1.722-4.272C39.066.554 40.503 0 42.243 0c1.784 0 3.234.538 4.35 1.614 1.127 1.12 1.69 2.538 1.69 4.256V6c0 1.75-.552 3.185-1.657 4.304zm8.274 1.68c-1.488 0-2.632-.392-3.43-1.174-.788-.783-1.182-1.924-1.182-3.424V.163h2.2v7.06c0 1.076.185 1.848.557 2.315.372.467.996.701 1.871.701.887 0 1.532-.234 1.937-.701.405-.467.608-1.288.608-2.462V.163h2.199v7.092c0 1.544-.405 2.718-1.215 3.522-.798.805-1.98 1.207-3.545 1.207zm11.433-.017c-1.455 0-2.539-.337-3.25-1.01-.7-.685-1.11-1.582-1.23-2.69h1.378c.055.38.131.711.23.994.11.282.273.549.492.799.23.25.542.44.936.57.394.13.875.196 1.444.196.766 0 1.4-.201 1.904-.603.514-.413.771-.946.771-1.598 0-.674-.202-1.174-.607-1.5-.394-.326-1.138-.57-2.232-.734-1.324-.206-2.309-.543-2.954-1.01-.646-.479-.969-1.213-.969-2.202 0-.902.356-1.652 1.067-2.25.711-.608 1.614-.913 2.708-.913 1.182 0 2.117.277 2.807.832.7.543 1.11 1.337 1.23 2.38h-1.28c-.142-.739-.432-1.266-.87-1.581-.426-.326-1.055-.49-1.887-.49-.788 0-1.395.175-1.822.522-.416.337-.623.794-.623 1.37 0 .609.186 1.07.558 1.386.372.304 1.127.538 2.265.7 1.378.207 2.385.566 3.02 1.077.645.5.968 1.272.968 2.315 0 .978-.388 1.8-1.165 2.462-.766.652-1.73.978-2.889.978zM72.959.163H80v.75h-6.122v4.549h5.616v.75h-5.616v4.859H80v.75h-7.041V.163z" fill="silver"/></svg>