<svg width="1440" height="486" fill="none" xmlns="http://www.w3.org/2000/svg"><path d="M596.886 149.145l-52.318-8.711v345.545h87.613v-323.56l-35.295-13.274z" fill="#0B0B0C"/><path d="M596.886 149.145l-23.667 336.834m23.667-336.834l-52.318-8.711v345.545h87.613v-323.56l-35.295-13.274zm-.51 7.309l35.805 13.469m-36.32-6.16l36.32 13.66m-36.835-6.351l36.835 13.851m-37.346-6.546l37.346 14.05m-37.861-6.74l37.861 14.24m-38.375-6.931l38.375 14.431m-38.886-7.122l38.886 14.627m-39.401-7.318l39.401 14.817m-39.916-7.508l39.916 15.012m-40.427-7.707l40.427 15.207m-40.941-7.898l40.941 15.398m-41.456-8.088l41.456 15.593m-41.967-8.285l41.967 15.784m-42.482-8.474l42.482 15.979m-42.997-8.67l42.997 16.17m-43.508-8.865l43.508 16.365m-44.022-9.056l44.022 16.559m-44.537-9.25l44.537 16.75m-45.065-9.445l45.065 16.95m-45.563-9.637l45.563 17.137m-46.078-9.827l46.078 17.327m-46.589-10.022l46.589 17.526m-47.103-10.217l47.103 17.717m-47.618-10.408l47.618 17.908m-48.133-10.599l48.133 18.103m-48.644-10.794l48.644 18.294m-49.159-10.989l49.159 18.493m-49.641-11.172l49.641 18.672m-50.184-11.375l50.184 18.875m-50.699-11.566l50.699 19.07m-51.214-11.76l51.214 19.26m-51.725-11.951l51.725 19.455m-52.24-12.15l52.24 19.65m-52.755-12.341l52.755 19.841m-53.265-12.532l53.265 20.036m-53.78-12.727l53.78 20.227m-54.295-12.917l54.295 20.417m-54.806-13.109l54.806 20.613m-55.321-13.308l55.321 20.808m-55.836-13.499l55.836 21.003m-56.346-13.693l56.346 21.193M575.32 456.1l56.861 21.384m-57.376-14.075l57.376 21.579m-57.887-14.27l40.58 15.262m-41.095-7.957l21.152 7.957m-5.656-329.526h4.02m-13.848 0h4.019m-9.828 0h-4.015m-5.809 0h-4.02m-5.808 0h-4.02m43.329 7.309h-4.02m-5.809 0h-4.019m-5.809 0h-4.015m-9.829 0h4.02m-13.848 0h4.02m39.309 7.508h-4.02m-5.809 0h-4.019m-9.824 0h4.015m-9.824 0h-4.02m-5.808 0h-4.02m43.329 7.513h-4.02m-5.809 0h-4.019m-5.809 0h-4.015m-5.809 0h-4.02m-5.808 0h-4.02m43.329 7.512h-4.02m-5.809 0h-4.019m-5.809 0h-4.015m-5.809 0h-4.02m-5.808 0h-4.02m43.329 7.509h-4.02m-5.809 0h-4.019m-5.809 0h-4.015m-5.809 0h-4.02m-5.808 0h-4.02m43.258 7.512h-3.949m-5.809 0h-4.019m-5.809 0h-4.015m-5.809 0h-4.02m-5.808 0h-4.02m42.727 7.512h-3.418m-5.809 0h-4.019m-5.809 0h-4.015m-5.809 0h-4.02m-5.808 0h-4.02m42.199 7.508h-2.89m-5.809 0h-4.019m-5.809 0h-4.015m-5.809 0h-4.02m-5.808 0h-4.02m41.672 7.513h-2.363m-5.809 0h-4.019m-5.809 0h-4.015m-5.809 0h-4.02m-5.808 0h-4.02m41.145 7.512h-1.836m-5.809 0h-4.019m-5.809 0h-4.015m-5.809 0h-4.02m-5.808 0h-4.02m40.617 7.509h-1.308m-5.809 0h-4.019m-5.809 0h-4.015m-5.809 0h-4.02m-5.808 0h-4.02m40.09 7.512h-.781m-5.809 0h-4.019m-5.809 0h-4.015m-5.809 0h-4.02m-5.808 0h-4.02m39.562 7.513h-.253m-5.809 0h-4.019m-5.809 0h-4.015m-5.809 0h-4.02m-5.808 0h-4.02m33.5 7.508h-4.019m-5.809 0h-4.015m-5.809 0h-4.02m-5.808 0h-4.02m33.5 7.512h-4.019m-5.809 0h-4.015m-5.809 0h-4.02m-5.808 0h-4.02m33.5 7.513h-4.019m-5.809 0h-4.015m-5.809 0h-4.02m-5.808 0h-4.02m33.5 7.508h-4.019m-5.809 0h-4.015m-5.809 0h-4.02m-5.808 0h-4.02m33.5 7.512h-4.019m-5.809 0h-4.015m-5.809 0h-4.02m-5.808 0h-4.02m33.5 7.512h-4.019m-5.809 0h-4.015m-5.809 0h-4.02m-5.808 0h-4.02m33.5 7.509h-4.019m-5.809 0h-4.015m-5.809 0h-4.02m-5.808 0h-4.02m33.5 7.512h-4.019m-5.809 0h-4.015m-5.809 0h-4.02m-5.808 0h-4.02m33.5 7.508h-4.019m-5.809 0h-4.015m-5.809 0h-4.02m-5.808 0h-4.02m33.5 7.513h-4.019m-5.809 0h-4.015m-5.809 0h-4.02m-5.808 0h-4.02m33.5 7.512h-4.019m-5.809 0h-4.015m-5.809 0h-4.02m-5.808 0h-4.02m33.231 7.508h-3.75m-5.809 0h-4.015m-5.809 0h-4.02m-5.808 0h-4.02m32.699 7.513h-3.218m-5.809 0h-4.015m-5.809 0h-4.02m-5.808 0h-4.02m32.172 7.512h-2.691m-5.809 0h-4.015m-5.809 0h-4.02m-5.808 0h-4.02m31.644 7.509h-2.163m-5.809 0h-4.015m-5.809 0h-4.02m-5.808 0h-4.02m31.117 7.512h-1.636m-5.809 0h-4.015m-5.809 0h-4.02m-5.808 0h-4.02m30.59 7.513h-1.109m-5.809 0h-4.015m-5.809 0h-4.02m-5.808 0h-4.02m30.061 7.508h-.58m-5.809 0h-4.015m-5.809 0h-4.02m-5.808 0h-4.02m29.535 7.512h-.054m-5.809 0h-4.015m-5.809 0h-4.02m-5.808 0h-4.02m23.672 7.512h-4.015m-5.809 0h-4.02m-5.808 0h-4.02m23.672 7.509h-4.015m-5.809 0h-4.02m-5.808 0h-4.02m23.672 7.512h-4.015m-5.809 0h-4.02m-5.808 0h-4.02m23.672 7.512h-4.015m-5.809 0h-4.02m-5.808 0h-4.02m23.672 7.509h-4.015m-5.809 0h-4.02m-5.808 0h-4.02m23.672 7.512h-4.015m-5.809 0h-4.02m-5.808 0h-4.02m23.672 7.512h-4.015m-5.809 0h-4.02m-5.808 0h-4.02m23.672 7.508h-4.015m-5.809 0h-4.02m-5.808 0h-4.02m23.672 7.513h-4.015m-5.809 0h-4.02m-5.808 0h-4.02m23.672 7.513h-4.015m-5.809 0h-4.02m-5.808 0h-4.02m23.672 7.508h-4.015m-5.809 0h-4.02m-5.808 0h-4.02" stroke="#161617" stroke-linecap="round" stroke-linejoin="round"/><path d="M83.109 394.719a1.453 1.453 0 10.001-2.905 1.453 1.453 0 00-.001 2.905zm11.003 0a1.453 1.453 0 10.002-2.905 1.453 1.453 0 00-.002 2.905zm11 0a1.453 1.453 0 100-2.905 1.453 1.453 0 000 2.905zm11.003 0a1.452 1.452 0 10.002-2.904 1.452 1.452 0 00-.002 2.904zm11.003 0a1.453 1.453 0 10.002-2.906 1.453 1.453 0 00-.002 2.906z" fill="#0B0B0C"/><path d="M233.943 429.842v-9.404h23.975v-41.764h-121.66v41.764h25.22v9.404H75.22v-68.309h4.982v-32.356H65.806V465.79H34.528v7.467h4.43v12.722H283.11v-56.137h-49.167zm-60.423 0v-9.404h48.382v9.404H173.52z" fill="#0B0B0C"/><path d="M75.22 361.533h-9.414m0 104.257h76.128v7.467H38.958m4.426 0v12.722m4.709-12.722v12.722m4.704-12.722v12.722m4.705-12.722v12.722m4.708-12.722v12.722m4.705-12.722v12.722m4.705-12.722v12.722m4.708-12.722v12.722m4.705-12.722v12.722m4.704-12.722v12.722m4.709-12.722v12.722m4.704-12.722v12.722m4.705-12.722v12.722m4.708-12.722v12.722m4.705-12.722v12.722m4.704-12.722v12.722m4.709-12.722v12.722m4.705-12.722v12.722m4.704-12.722v12.722m4.709-12.722v12.722m4.704-12.722v12.722m17.988-12.722v12.722m4.704-12.722v12.722m4.705-12.722v12.722m4.708-12.722v12.722m4.705-12.722v12.722m4.704-12.722v12.722m4.709-12.722v12.722m4.704-12.722v12.722m4.705-12.722v12.722m4.709-12.722v12.722m4.704-12.722v12.722m4.705-12.722v12.722m4.708-12.722v12.722m4.705-12.722v12.722m4.704-12.722v12.722m4.709-12.722v12.722m4.704-12.722v12.722m4.705-12.722v12.722m4.708-12.722v12.722m4.705-12.722v12.722m4.704-12.722v12.722m4.709-12.722v12.722m4.705-12.722v12.722m4.704-12.722v12.722m4.709-12.722v12.722m4.704-12.722v12.722m4.705-12.722v12.722M173.52 429.842h-12.042m72.465 0h-12.041M115.081 465.79l26.853-12.997h11.9m0 .001l26.852-12.997h11.905m0 0l20.566-9.955" stroke="#161617" stroke-linecap="round" stroke-linejoin="round"/><path d="M126.168 465.79l17.418-8.429h11.905m0 0l26.848-12.997h11.905m0 .001l30-14.523m-50.724-9.404h-12.042m72.465 0h-12.041m-138.793 9.404v-35.123m0 0a1.453 1.453 0 10.001-2.905 1.453 1.453 0 00-.001 2.905zm11.003 35.123v-35.123m0 0a1.453 1.453 0 10.002-2.905 1.453 1.453 0 00-.002 2.905zm11 35.123v-35.123m0 0a1.453 1.453 0 100-2.905 1.453 1.453 0 000 2.905zm11.003 35.123v-35.123m0 0a1.452 1.452 0 10.002-2.904 1.452 1.452 0 00-.002 2.904zm11.003 35.123v-35.123m0 0a1.453 1.453 0 10.002-2.906 1.453 1.453 0 00-.002 2.906zm34.36 25.719h12.042m0 9.404h-12.042m60.424-9.404h12.041m0 9.404h-12.041m61.208 35.948H155.491v7.467H283.11m-64.36-36.293v3.107m1.553-1.555h-3.11m15.812-1.552v3.107m1.557-1.555h-3.114m-19.827-43.71v10.387m5.198-5.193h-10.397m40.837 36.964v3.107m1.557-1.555h-3.114m15.816-1.552v3.107m1.553-1.555h-3.11m15.812-1.552v3.107m1.557-1.555h-3.114m-55.466 9.818v3.112m1.553-1.556h-3.11m15.812-1.556v3.112m1.557-1.556h-3.114m15.811-1.556v3.112m1.557-1.556h-3.114m15.816-1.556v3.112m1.553-1.556h-3.11m15.812-1.556v3.112m1.557-1.556h-3.114m-55.466 9.815v3.111m1.553-1.556h-3.11m15.812-1.555v3.111m1.557-1.556h-3.114m15.811-1.555v3.111m1.557-1.556h-3.114m-56.371-12.926v3.112m1.558-1.556h-3.115m15.812-1.556v3.112m1.557-1.556h-3.11m-26.956 9.815v3.111m1.557-1.556h-3.114m15.811-1.555v3.111m1.558-1.556h-3.115m-29.094-1.555v3.111m1.557-1.556h-3.114m46.463-1.555v3.111m1.557-1.556h-3.11m59.485-1.555v3.111m1.553-1.556h-3.11m15.812-1.555v3.111m1.557-1.556h-3.114m-132.282 4.53h13.557m-43.595-2.974v-3.111m-1.553 1.555h3.11m-15.811 1.556v-3.111m-1.557 1.555h3.114m-15.812 1.556v-3.111m-1.557 1.555h3.11m55.47-9.814v-3.112m-1.557 1.556h3.114m-15.812 1.556v-3.112m-1.557 1.556h3.11m-15.812 1.556v-3.112m-1.553 1.556h3.11m-15.811 1.556v-3.112m-1.557 1.556h3.114m-15.812 1.556v-3.112m-1.557 1.556h3.11m55.47-9.819v-3.107m-1.557 1.552h3.114m-15.812 1.555v-3.107m-1.557 1.552h3.11m-15.812 1.555v-3.107m-1.553 1.552h3.11m56.371 1.555v-3.107m-1.553 1.552h3.11m-15.811 1.555v-3.107m-1.557 1.552h3.114m-59.485 1.555v-3.107m-1.557 1.552h3.114m-15.812 1.555v-3.107m-1.557 1.552h3.11m83.331-27.105h68.89c3.155 0 6.181-1.252 8.412-3.481a11.875 11.875 0 000-16.807 11.902 11.902 0 00-8.412-3.481h-30.457" stroke="#161617" stroke-linecap="round" stroke-linejoin="round"/><path d="M170.929 408.922h66.232c2.494 0 4.887-.99 6.65-2.752a9.39 9.39 0 000-13.287 9.408 9.408 0 00-6.65-2.752h-34.613" stroke="#161617" stroke-linecap="round" stroke-linejoin="round"/><path d="M210.861 385.153h26.3a14.4 14.4 0 0110.174 4.21 14.365 14.365 0 010 20.327 14.395 14.395 0 01-10.174 4.21h-94.953m20.815-28.27c.527.079 3.874 6.114 4.75 6.293a2.02 2.02 0 011.291.995s.47-1.817 2.056-1.584c1.586.232 1.818 2.58 0 3.165 0 .941 1.054 3.468 1.582 3.318.527-.149 2.819-1.501 4.11-1.501" stroke="#161617" stroke-linecap="round" stroke-linejoin="round"/><path d="M166.602 393.205c-1.291.995-6.228 1.539-6.228 4.276 0 2.228 4.106 3.107 5.34 3.282 1.233.174-2.23 7.122-1.117 7.122h3.051" stroke="#161617" stroke-linecap="round" stroke-linejoin="round"/><path d="M163.787 397.481a22.105 22.105 0 014.464 2.228c1.486 1.074-1.321 5.808-1.321 5.808m-4.775-5.833s-2.828 4.128-3.355 4.596c-.527.469-3.7 1.996-4.522 3.344-.822 1.348-1.756 1.464-1.756 1.464m7.86-11.607a13.11 13.11 0 00-3.044 4.75c-.319.859-2.707 2.518-3.529 3.543m-1.287 6.089v-7.475m1.403-18.102c.532.078 3.874 6.118 4.755 6.292a2.021 2.021 0 011.291.996s.469-1.817 2.051-1.58c1.582.236 1.823 2.576 0 3.165" stroke="#161617" stroke-linecap="round" stroke-linejoin="round"/><path d="M157.513 393.868c-1.287.996-6.228 1.543-6.228 4.277 0 2.228 4.106 3.107 5.335 3.285.341.046.324.602.15 1.378m-2.081-4.663a24.727 24.727 0 013.771 1.771" stroke="#161617" stroke-linecap="round" stroke-linejoin="round"/><path d="M153.058 400.352s-2.824 4.123-3.356 4.596c-.531.473-3.695 1.991-4.517 3.319-.822 1.327-1.761 1.464-1.761 1.464m7.861-11.586a13.076 13.076 0 00-3.048 4.75c-.316.858-2.703 2.522-3.525 3.546m-1.288 6.086v-7.475m71.871-8.724l-7.349 7.342m7.349 0l-7.349-7.342m-66.012 89.651v-12.722m79.968-52.819H173.52v9.403h48.382v-9.403z" stroke="#161617" stroke-linecap="round" stroke-linejoin="round"/><path d="M233.943 429.842v-9.404h23.975v-41.764h-121.66v41.764h25.22v9.404H75.22v-68.309h4.982v-32.356H65.806V465.79H34.528v7.467h4.43v12.722H283.11v-56.137h-49.167z" stroke="#161617" stroke-linecap="round" stroke-linejoin="round"/><path d="M65.806 465.79h9.414v-35.948m-4.983-95.409h5.535m-5.535 5.289h5.535m-5.535 5.289h5.535m-5.535 5.289h5.535m-5.535 5.289h5.535" stroke="#161617" stroke-linecap="round" stroke-linejoin="round"/><path d="M491.918 442.311h-7.782V410.03l1.765-1.842v-3.037h8.84l-6.78-6.508h-5.506v-14.104h1.686l-1.686-3.198v-22.903h1.686l-1.686-3.198-.415-4.642s-.416-5.226-5.88-10.868a37.014 37.014 0 01-6.772-9.956v-6.508h1.416l-1.89-2.929c5.813-7.699-4.31-9.325-4.31-15.398 0 6.073-10.123 7.699-4.314 15.398l-1.885 2.929h1.391v6.508a37.153 37.153 0 01-6.772 9.956c-5.485 5.642-5.88 10.868-5.88 10.868l-.415 4.642-1.686 3.198h1.686l.054 22.687-8.06-2.074-.041.149v-20.741l1.246-3.198h-1.661c0-4.069-3.106-11.661-10.119-11.661h-.262v-3.405l2.699-4.294h-2.699v-11.889l2.699-4.293h-4.871a7.878 7.878 0 00-.888-3.638l-4.31-14.328v-25.192h-7.57l-2.707-8.997v-11.615c8.927-5.638-1.491-9.541-2.857-17.352v-5.206c3.193-3.319-1.74-10.52-1.74-10.52v-.722a1.74 1.74 0 10-3.475 0v.73s-4.949 7.193-1.748 10.512v5.206c-1.366 7.807-11.784 11.714-2.857 17.352v11.615l-2.707 8.997h-7.57v25.176l-4.305 14.328a7.831 7.831 0 00-.885 3.637h-4.887l2.699 4.294v11.889h-2.699l2.699 4.293v3.406h-.249c-7.009 0-10.119 7.591-10.119 11.66h-1.661l1.246 3.199v20.741l-.038-.15-8.064 2.074.054-22.686h1.69l-1.69-3.198-.415-4.642s-.415-5.227-5.879-10.869a37.128 37.128 0 01-6.773-9.955v-6.509h1.416l-1.885-2.928c5.813-7.699-4.314-9.326-4.314-15.399 0 6.073-10.119 7.7-4.31 15.399l-1.885 2.928h1.412v6.509a37.028 37.028 0 01-6.773 9.955c-5.481 5.642-5.879 10.869-5.879 10.869l-.415 4.642-1.686 3.198h1.686v22.902l-1.686 3.198h1.686v14.104h-5.506l-6.781 6.509h8.84v3.036l1.765 1.842v32.281h-7.781l-6.843 6.526h8.84v3.036l1.764 1.842v32.281h168.411v-32.281l1.765-1.842v-3.036h8.844l-6.776-6.509z" fill="#0B0B0C"/><path d="M403.89 393.868l19.238 18.8h19.656l-6.091 6.649h-17.718l-15.085-14.746m56.055-20.028l-6.091 6.654h-30.17l-19.794-6.148m0-7.831l17.917 5.484m14.886 36.616l29.273 10.702h-40.484l7.474-10.702m33.01 10.702l-3.322 4.99v3.037l-1.764 1.842v29.174l2.545 2.169v14.747H403.89" stroke="#161617" stroke-linecap="round" stroke-linejoin="round"/><path d="M449.253 430.02l3.322 4.99v3.037l1.765 1.842v29.174l-2.541 2.169v14.747m.776-50.969h10.069m-8.304 4.879h6.54m-6.54 29.174h6.54m2.545 2.169h-11.626m-9.604-41.212l-3.322 4.99v3.037l-1.765 1.842v29.174l2.546 2.169v14.747m-14.172-55.959l3.322 4.99v3.037l1.764 1.842v29.174l-2.541 2.169v14.747m.777-50.969h10.069m-8.305 4.879h6.54m-6.54 29.174h6.54m2.545 2.169h-11.626m-24.137-21.836h9.413v36.583m17.265-43.668H403.89m-19.449 0c0-11.221 8.72-20.326 19.449-20.326 10.73 0 19.445 9.097 19.445 20.326m-19.445-26.776c2.53-.002 5.033.51 7.358 1.505" stroke="#161617" stroke-linecap="round" stroke-linejoin="round"/><path d="M394.473 442.311c0-5.434 4.214-9.835 9.417-9.835 5.203 0 9.413 4.401 9.413 9.835m5.951 9.421l-2.438-2.547 2.438-2.547 2.437 2.547-2.437 2.547zm0 5.094l-2.438-2.551 2.438-2.543 2.437 2.543-2.437 2.551zm0 5.09l-2.438-2.547 2.438-2.543 2.437 2.543-2.437 2.547zm0 5.094l-2.438-2.547 2.438-2.547 2.437 2.547-2.437 2.547zm0 5.094l-2.438-2.547 2.438-2.547 2.437 2.547-2.437 2.547zm0 5.094l-2.438-2.547 2.438-2.547 2.437 2.547-2.437 2.547zm0 5.094l-2.438-2.547 2.438-2.547 2.437 2.547-2.437 2.547zm-8.006-65.252l-7.358-7.516m45.363 32.787h-7.058v26.752h7.058v-26.752zm28.124 12.723h-10.904v16.194h10.904v-16.194zm-64.074 22.703h-9.413m9.413 4.048h-9.413m49.964-90.588v3.036l-1.765 1.842v28.594m-8.3-33.472v3.036l1.765 1.842v26.482m0-26.482h6.54m27.695 52.744v3.037l1.765 1.842v32.281m0-32.281h6.54m-54.254-62.501v3.036l-1.764 1.842v16.593m-8.305-21.471v3.036l1.765 1.842v16.593m0-16.593h6.54M427.869 369h-6.124a17.706 17.706 0 00-8.442-12.146c-7.474-4.339-8.719-7.811-9.413-12.445m56.055 40.134l-13.179-3.414m-24.955 1.572v-6.906h-8.234s2.612-8.857-1.104-12.582c-2.599-2.605-6.062-3.352-8.583-3.318m85.968 88.924H460.88m0-6.508h23.256m1.653 0l6.785 6.509m-12.914-6.509l6.785 6.509m-12.913-6.509l6.784 6.509m-12.913-6.509l6.785 6.509m-12.914-6.509l6.785 6.509m-25.864-.689h7.058m-7.058 2.386h7.058m-7.058 10.411h7.058m-7.058 2.386h7.058m22.672-8.28v16.198m-1.105-58.564h-7.059v11.192h7.059v-11.192zm5.012-7.517v3.037l1.765 1.842v32.281m0-32.281h6.539m1.765-4.879h-33.807m0-6.508h30.361m-.623 0l6.781 6.509m-12.91-6.509l6.781 6.509m-12.909-6.509l6.78 6.509m-12.909-6.509l6.78 6.509m-12.909-6.509l6.781 6.509m-12.009-5.568l5.801 5.567m6.694-49.907h8.935l1.686 3.198h-10.621m-16.921 22.903h25.856l1.686 3.198h-15.26m13.574-26.1v22.902m-8.935-33.049c3.674 0 6.643 3.111 6.643 6.952m-6.643-10.022a9.558 9.558 0 018.499 5.393s1.088-4.903-3.172-11.519c-2.712-4.211-2.52-9.326-2.52-9.326h-2.807m0 34.144h5.327v17.427m12.544-22.902h-8.936m0-3.199h8.936m0 29.299h-8.936m0-3.198h8.936m-8.936-33.049c3.675 0 6.644 3.111 6.644 6.952m-10.796-25.49h-1.976m5.235 15.253c3.692 0 7.79 2.393 9.393 5.592m-8.5 13.315h5.328v17.427m-9.48-58.095h-4.783m0-2.929h4.31m-4.31-15.398v-15.618m-3.322 3.202h6.78m-4.883 4.961l2.986 2.476m-1.561 55.3h-8.936l-1.69 3.198h10.626m-8.936.001v22.902m8.936-33.049c-3.675 0-6.644 3.111-6.644 6.952" stroke="#161617" stroke-linecap="round" stroke-linejoin="round"/><path d="M464.584 345.226a9.556 9.556 0 00-8.5 5.393s-1.088-4.903 3.172-11.519c2.712-4.211 2.521-9.326 2.521-9.326h2.807m0 34.144h-5.332v17.427m-12.54-22.902h8.936m0-3.199h-8.936m8.932-6.948c-3.675 0-6.644 3.111-6.644 6.952m10.8-25.49h1.977m-5.236 15.253c-3.696 0-7.79 2.393-9.393 5.592m8.5 13.315h-5.327v17.427m9.479-58.095h4.784m0-2.929h-4.315m4.315-15.398v-15.618m5.642 100.59h-12.257v4.554h12.257v-4.554zm-42.357-49.717H403.89m0-4.293h23.979m0 7.699V369m-6.124 0v-28.822m0 5.795h6.124m-11.958-5.795v18.53m-6.125-4.119v-14.411m0 5.795h6.125m5.834 17.24h6.124m-31.249-27.328c0-4.194 3.255-7.595 7.27-7.595s7.267 3.401 7.267 7.595m0 0c0-4.194 3.255-7.595 7.27-7.595s7.267 3.401 7.267 7.595m2.175-11.889H403.89m0-4.293h21.808m-29.078 0c0-4.194 3.255-7.596 7.27-7.596s7.267 3.402 7.267 7.596m-7.267-36.472a2.655 2.655 0 012.595 2.713v15.237m4.672 18.522c0-4.194 3.255-7.596 7.27-7.596a7.24 7.24 0 013.746 1.086 7.22 7.22 0 012.636 2.872" stroke="#161617" stroke-linecap="round" stroke-linejoin="round"/><path d="M403.89 270.6l4.775 9.761h2.18l-1.059 4.335v16.485h-5.896m9.04-24.616l7.569 25.172m-16.609-34.173h6.332m-3.737 19.953h-2.595m17.689 17.808H403.89m6.332-49.368h-6.332m3.476-17.352h-3.476m3.476-5.206h-3.476m1.736-11.25a1.745 1.745 0 01-.478 1.284 1.75 1.75 0 01-1.26.539 1.734 1.734 0 01-1.63-1.132 1.728 1.728 0 01-.108-.691m1.74-1.817v-16.431m-3.479 5.178h6.955m13.133 67.483v-10.516s-2.076 6.832-5.448 6.72c-2.856-.091-3.213 0-3.213 0m26.869 106.273l-10.838-2.809V369m10.796-10.557h-10.796m0-3.199h10.381m45.886 87.067H460.88m-56.99-48.443l-19.241 18.8h-19.657l6.091 6.649h17.718l15.089-14.746m-56.059-20.028l6.091 6.654h30.17l19.798-6.148m0-7.831l-17.921 5.484m-14.886 36.616L341.81 430.02h40.484l-7.474-10.702m-33.01 10.702l3.322 4.99v3.037l1.765 1.842v29.174l-2.546 2.169v14.747h59.539" stroke="#161617" stroke-linecap="round" stroke-linejoin="round"/><path d="M358.523 430.02l-3.322 4.99v3.037l-1.765 1.842v29.174l2.542 2.169v14.747m-.777-50.969h-10.069m8.304 4.879h-6.539m6.539 29.174h-6.539m-2.546 2.169h11.627m9.604-41.212l3.321 4.99v3.037l1.765 1.842v29.174l-2.541 2.169v14.747m14.167-55.959l-3.321 4.99v3.037l-1.765 1.842v29.174l2.541 2.169v14.747m-.776-50.969h-10.07m8.305 4.879h-6.54m6.54 29.174h-6.54m-2.541 2.169h11.622m24.141-21.836h-9.417v36.583m-17.265-43.668h26.682m0-26.776a18.631 18.631 0 00-7.358 1.505m-8.009 34.692l2.437-2.547-2.437-2.547-2.438 2.547 2.438 2.547zm0 5.094l2.437-2.551-2.437-2.543-2.438 2.543 2.438 2.551zm0 5.09l2.437-2.547-2.437-2.543-2.438 2.543 2.438 2.547zm0 5.094l2.437-2.547-2.437-2.547-2.438 2.547 2.438 2.547zm0 5.094l2.437-2.547-2.437-2.547-2.438 2.547 2.438 2.547zm0 5.094l2.437-2.547-2.437-2.547-2.438 2.547 2.438 2.547zm0 5.094l2.437-2.547-2.437-2.547-2.438 2.547 2.438 2.547zm8.005-65.252l7.362-7.516m-45.367 59.539h7.059v-26.752h-7.059v26.752zm-28.123 2.169h10.903v-16.194H330.4v16.194zm64.073 6.505h9.417m-9.417 4.048h9.417m-49.968-90.588v3.036l1.765 1.842v28.594m8.3-33.472v3.036l-1.764 1.842v26.482m-.001-26.482h-6.535m-27.7 52.744v3.037l-1.764 1.842v32.281m0-32.281h-6.54m54.253-62.501v3.036l1.765 1.842v16.593m8.304-21.471v3.036l-1.765 1.842v16.593m0-16.593h-6.535M379.907 369h6.124a17.708 17.708 0 018.442-12.146c7.474-4.339 8.72-7.811 9.417-12.445m-56.059 40.134l13.179-3.414m24.955 1.572v-6.906h8.226s-2.608-8.857 1.104-12.582c2.604-2.605 6.062-3.352 8.587-3.318m-85.964 88.924h28.979m0-6.508H323.64m-1.653 0l-6.78 6.509m12.909-6.509l-6.785 6.509m12.914-6.509l-6.785 6.509m12.913-6.509l-6.784 6.509m12.913-6.509l-6.785 6.509m25.865-.689h-7.059m7.059 2.386h-7.059m7.059 10.411h-7.059m7.059 2.386h-7.059m-22.671-8.28v16.198m1.104-47.372h7.059v-11.192h-7.059v11.192zm-5.012-18.709v3.037l-1.764 1.842v32.281m0-32.281h-6.54m-1.765-4.879h33.812m0-6.508h-30.365m.622 0l-6.78 6.509m12.909-6.509l-6.781 6.509m12.91-6.509l-6.781 6.509m12.91-6.509l-6.781 6.509m12.909-6.509l-6.78 6.509m12.008-5.568l-5.801 5.567m-6.693-49.907h-8.936l-1.686 3.198h10.622m16.92 22.903h-25.856l-1.686 3.198h15.26m-13.574-26.1v22.902m8.936-33.049c-3.675 0-6.644 3.111-6.644 6.952m6.644-10.022a9.558 9.558 0 00-8.5 5.393s-1.088-4.903 3.172-11.519c2.712-4.211 2.521-9.326 2.521-9.326h2.807m0 34.144h-5.328v17.427m-12.543-22.902h8.935m0-3.199h-8.935m0 29.299h8.935m0-3.198h-8.935m8.935-33.049c-3.67 0-6.643 3.111-6.643 6.952m10.795-25.49h1.977m-5.236 15.253c-3.691 0-7.79 2.393-9.393 5.592m8.5 13.315h-5.327v17.427m9.479-58.095h4.784m0-2.929h-4.31m4.31-15.398v-15.618m3.322 3.202h-6.781m4.883 4.961l-2.985 2.476" stroke="#161617" stroke-linecap="round" stroke-linejoin="round"/><path d="M343.193 355.244h8.935l1.69 3.198h-10.625m8.935.001v22.902m-8.935-33.049c3.675 0 6.643 3.111 6.643 6.952m-6.643-10.022a9.558 9.558 0 018.499 5.393s1.092-4.903-3.168-11.519c-2.711-4.211-2.524-9.326-2.524-9.326h-2.807m0 34.144h5.331v17.427m12.54-22.902h-8.936m0-3.199h8.936m-8.936-6.948c3.675 0 6.644 3.111 6.644 6.952m-10.796-25.49H346m5.236 15.253c3.695 0 7.789 2.393 9.392 5.592m-8.5 13.315h5.332v17.427m-9.484-58.095h-4.783m0-2.929h4.314m-4.314-15.398v-15.618m-5.643 105.144h12.257v-4.555H337.55v4.555zm42.357-54.271h23.983m0-4.293h-23.983m0 7.699V369m6.124 0v-28.822m0 5.795h-6.124m11.958-5.795v18.53m6.125-4.119v-14.411m0 5.795h-6.125m-5.834 17.24h-6.124m16.713-27.328c0-4.194-3.256-7.595-7.271-7.595-4.015 0-7.266 3.401-7.266 7.595m-2.176-11.889h23.983m0-4.293h-21.807m21.807-36.472a2.653 2.653 0 00-1.862.819 2.654 2.654 0 00-.737 1.894v15.237m-4.671 18.522c0-4.194-3.256-7.596-7.271-7.596a7.227 7.227 0 00-6.382 3.958" stroke="#161617" stroke-linecap="round" stroke-linejoin="round"/><path d="M403.89 270.6l-4.779 9.761h-2.18l1.059 4.335v16.485h5.9m-9.043-24.616l-7.57 25.172m16.613-34.173h-6.336m3.737 19.953h2.599m-17.692 17.808h17.692m-6.336-49.368h6.336m-3.471-17.352h3.48m-3.488-5.206h3.479m0-13.067v-16.431m-16.613 72.661v-10.516s2.076 6.832 5.448 6.72c2.857-.091 3.214 0 3.214 0m-26.865 106.273l10.833-2.809V369m-10.796-10.557h10.796m0-3.199h-10.381m-45.886 87.067h23.257" stroke="#161617" stroke-linecap="round" stroke-linejoin="round"/><path d="M491.918 442.311h-7.782V410.03l1.765-1.842v-3.037h8.84l-6.78-6.508h-5.506v-14.104h1.686l-1.686-3.198v-22.903h1.686l-1.686-3.198-.415-4.642s-.416-5.226-5.88-10.868a37.014 37.014 0 01-6.772-9.956v-6.508h1.416l-1.89-2.929c5.813-7.699-4.31-9.325-4.31-15.398 0 6.073-10.123 7.699-4.314 15.398l-1.885 2.929h1.391v6.508a37.153 37.153 0 01-6.772 9.956c-5.485 5.642-5.88 10.868-5.88 10.868l-.415 4.642-1.686 3.198h1.686l.054 22.687-8.06-2.074-.041.149v-20.741l1.246-3.198h-1.661c0-4.069-3.106-11.661-10.119-11.661h-.262v-3.405l2.699-4.294h-2.699v-11.889l2.699-4.293h-4.871a7.878 7.878 0 00-.888-3.638v0l-4.31-14.328v-25.192h-7.57l-2.707-8.997v-11.615c8.927-5.638-1.491-9.541-2.857-17.352v-5.206c3.193-3.319-1.74-10.52-1.74-10.52v-.722a1.74 1.74 0 10-3.475 0v.73s-4.949 7.193-1.748 10.512v5.206c-1.366 7.807-11.784 11.714-2.857 17.352v11.615l-2.707 8.997h-7.57v25.176l-4.305 14.328a7.831 7.831 0 00-.885 3.637h-4.887l2.699 4.294v11.889h-2.699l2.699 4.293v3.406h-.249c-7.009 0-10.119 7.591-10.119 11.66h-1.661l1.246 3.199v20.741l-.038-.15-8.064 2.074.054-22.686h1.69l-1.69-3.198-.415-4.642s-.415-5.227-5.879-10.869a37.128 37.128 0 01-6.773-9.955v-6.509h1.416l-1.885-2.928c5.813-7.699-4.314-9.326-4.314-15.399 0 6.073-10.119 7.7-4.31 15.399l-1.885 2.928h1.412v6.509a37.028 37.028 0 01-6.773 9.955c-5.481 5.642-5.879 10.869-5.879 10.869l-.415 4.642-1.686 3.198h1.686v22.902l-1.686 3.198h1.686v14.104h-5.506l-6.781 6.509h8.84v3.036l1.765 1.842v32.281h-7.781l-6.843 6.526h8.84v3.036l1.764 1.842v32.281h168.411v-32.281l1.765-1.842v-3.036h8.844l-6.776-6.509z" stroke="#161617" stroke-linecap="round" stroke-linejoin="round"/><path d="M403.89 373.916a3.677 3.677 0 100-7.351 3.677 3.677 0 100 7.351z" stroke="#161617" stroke-linecap="round" stroke-linejoin="round"/><path d="M587.943 485.979h113.426v-19.393l-3.562-3.559v-11.341h-3.322v-127.35h-10.518v-14.519l-10.243-7.188-29.066-45.075-29.066 45.075-10.243 7.188v14.519h-10.518v22.654" fill="#0B0B0C"/><path d="M683.967 309.817h-18.27v-3.87l-21.039-7.74m21.035 7.74l-21.035-48.397m0 63.787l21.039 7.745v122.604m0 0h3.322v11.341l3.563 3.559v19.393m-6.889-176.162v19.265" stroke="#161617" stroke-linecap="round" stroke-linejoin="round"/><path d="M644.658 330.836l4.015-1.754v156.897m-4.015-178.095l4.015-1.755v16.684m20.342 128.873h25.47m-25.47 11.341h28.792m-25.225 3.559h28.787m-40.621-3.559l3.563 3.56v19.392m-15.642-22.952h12.079m-12.079 3.559h15.642m-19.653-135.75l4.011-1.754m-4.011 7.433l4.011-1.759m-4.011 7.434l4.011-1.754m-4.011 7.429l4.011-1.755m-4.011-33.157l4.011-1.754m-4.011 7.429l4.011-1.754m-4.011 36.67l4.011-1.755m-4.011 7.43l4.011-1.755m-4.011 7.429l4.011-1.755m-4.011 7.434l4.011-1.755m-4.011 7.43l4.011-1.755m-4.011 7.433l4.011-1.758m-4.011 7.433l4.011-1.754m-4.011 7.429l4.011-1.754m-4.011 7.433l4.011-1.755m-4.011 7.43l4.011-1.755m-4.011 7.434l4.011-1.759m-4.011 7.433l4.011-1.754m-4.011 7.429l4.011-1.755m-4.011 7.434l4.011-1.755m-4.011 7.43l4.011-1.755m-4.011 7.429l4.011-1.754m-4.011 7.433l4.011-1.755m-4.011 7.43l4.011-1.754m-4.011 7.433l4.011-1.759m-4.011 7.433l4.011-1.754m-4.011 7.429l4.011-1.755m-4.011 7.434l4.011-1.754m-4.011 7.429l4.011-1.754m31.005-152.223v-2.825m0-4.854v-2.825m-5.261 2.825v-2.825m-5.257 10.504v-2.825m10.518 19.177v-2.825m-5.261-4.853v-2.825m15.226 10.503v-2.825m0-4.853v-2.825m-5.256 10.503v-2.825m0-4.853v-2.825m-15.227 10.503v-2.825m10.518 18.182v-2.825m0-4.854v-2.825m-5.261 2.825v-2.825m15.226 10.504v-2.825m-5.256-4.854v-2.825m-15.227 10.504v-2.825m10.518 10.503v-2.825m-5.261 10.503v-2.829m0-4.849v-2.825m15.226 10.503v-2.829m-5.256 2.829v-2.829m0-4.849v-2.825m-15.227 10.503v-2.829m0-4.849v-2.825m10.518 18.182v-2.829m-5.261 10.503v-2.825m0-4.849v-2.829m15.226 10.503v-2.825m0-4.849v-2.829m-5.256 10.503v-2.825m-15.227 2.825v-2.825m10.518 18.181v-2.824m0-4.854v-2.825m-5.261 10.503v-2.824m15.226 2.824v-2.824m0-4.854v-2.825m-5.256 2.825v-2.825m-15.227 2.825v-2.825m10.518 25.86v-2.829m-5.261-4.849v-2.825m15.226 10.503v-2.829m-5.256 2.829v-2.829m0-4.849v-2.825m-15.227 10.503v-2.829m0-4.849v-2.825m10.518 25.856v-2.825m0-4.849v-2.829m-5.261 2.829v-2.829m15.226 2.829v-2.829m-20.483 10.503v-2.825m0-4.849v-2.829m10.518 25.859v-2.825m-5.261-4.853v-2.825m15.226 10.503v-2.825m0-4.853v-2.825m-5.256 10.503v-2.825m0-4.853v-2.825m-15.227 2.825v-2.825m-11.161-107.488h-2.466v2.825h2.466v-2.825zm0 7.678h-2.466v2.825h2.466v-2.825zm0 15.357h-2.466v2.825h2.466v-2.825zm0 7.678h-2.466v2.825h2.466v-2.825zm0 7.674h-2.466v2.825h2.466v-2.825zm0 7.679h-2.466v2.825h2.466v-2.825zm0 7.678h-2.466v2.825h2.466v-2.825zm0 7.678h-2.466v2.825h2.466v-2.825zm0 15.357h-2.466v2.825h2.466v-2.825zm0 15.353h-2.466v2.825h2.466v-2.825zm0 7.678h-2.466v2.825h2.466v-2.825zm0 15.356h-2.466v2.825h2.466v-2.825zm-52.646-135.642h18.27v-3.87l21.039-7.74m-21.039 7.74l21.039-48.397m0 63.787l-21.039 7.745v122.604m0 0h-3.322v11.341l-3.563 3.559v19.393m6.885-176.162v19.265" stroke="#161617" stroke-linecap="round" stroke-linejoin="round"/><path d="M644.658 330.836l-4.015-1.754v156.897m4.015-178.095l-4.015-1.755v16.684m-20.346 128.873h-25.466m25.466 11.341h-24.631m21.068 3.559h-24.635m36.469-3.559l-3.563 3.56v19.392m15.638-22.952h-12.075m12.075 3.559h-15.642m19.657-135.75l-4.015-1.754m4.015 7.433l-4.015-1.759m4.015 7.434l-4.015-1.754m4.015 7.429l-4.015-1.755m4.015-33.157l-4.015-1.754m4.015 7.429l-4.015-1.754m4.015 36.67l-4.015-1.755m4.015 7.43l-4.015-1.755m4.015 7.429l-4.015-1.755m4.015 7.434l-4.015-1.755m4.015 7.43l-4.015-1.755m4.015 7.433l-4.015-1.758m4.015 7.433l-4.015-1.754m4.015 7.429l-4.015-1.754m4.015 7.433l-4.015-1.755m4.015 7.43l-4.015-1.755m4.015 7.434l-4.015-1.759m4.015 7.433l-4.015-1.754m4.015 7.429l-4.015-1.755m4.015 7.434l-4.015-1.755m4.015 7.43l-4.015-1.755m4.015 7.429l-4.015-1.754m4.015 7.433l-4.015-1.755m4.015 7.43l-4.015-1.754m4.015 7.433l-4.015-1.759m4.015 7.433l-4.015-1.754m4.015 7.429l-4.015-1.755m4.015 7.434l-4.015-1.754m4.015 7.429l-4.015-1.754m-31.005-152.223v-2.825m0-4.854v-2.825m10.522 10.504v-2.825m0-4.854v-2.825m-10.522 26.856v-2.825m5.261 2.825v-2.825m0-4.853v-2.825m-15.226 10.503v-2.825m0-4.853v-2.825m5.261 10.503v-2.825m0-4.853v-2.825m15.226 10.503v-2.825m0-4.853v-2.825m-10.522 25.86v-2.825m5.261 2.825v-2.825m0-4.854v-2.825m-15.226 10.504v-2.825m0-4.854v-2.825m5.261 2.825v-2.825m15.226 10.504v-2.825m0-4.854v-2.825m-10.522 25.86v-2.829m0-4.849v-2.825m5.261 10.503v-2.829m-15.226 2.829v-2.829m5.261 2.829v-2.829m0-4.849v-2.825m15.226 10.503v-2.829m0-4.849v-2.825m-10.522 25.856v-2.825m0-4.849v-2.829m5.261 10.503v-2.825m0-4.849v-2.829m-15.226 10.503v-2.825m0-4.849v-2.829m20.487 10.503v-2.825m0-4.849v-2.829m-10.522 18.181v-2.825m5.261 10.503v-2.824m-15.226 2.824v-2.824m5.261 2.824v-2.824m0-4.854v-2.825m15.226 10.503v-2.824m0-4.854v-2.825m-10.522 18.182v-2.825m5.261 10.503v-2.829m0-4.849v-2.825m-15.226 10.503v-2.829m0-4.849v-2.825m5.261 10.503v-2.829m15.226 2.829v-2.829m-10.522 18.182v-2.825m5.261 2.825v-2.825m0-4.849v-2.829m-15.226 2.829v-2.829m5.261 10.503v-2.825m15.226 2.825v-2.825m-10.522 18.181v-2.825m5.261 2.825v-2.825m0-4.853v-2.825m-15.226 10.503v-2.825m0-4.853v-2.825m5.261 2.825v-2.825m15.226 10.503v-2.825m11.161-112.337h2.466v-2.825h-2.466v2.825zm0 15.353h2.466v-2.825h-2.466v2.825zm0 7.678h2.466v-2.825h-2.466v2.825zm0 23.035h2.466v-2.825h-2.466v2.825zm0 7.674h2.466v-2.825h-2.466v2.825zm0 15.357h2.466v-2.825h-2.466v2.825zm0 7.674h2.466v-2.825h-2.466v2.825zm0 7.682h2.466v-2.825h-2.466v2.825zm0 7.678h2.466v-2.825h-2.466v2.825zm0 15.353h2.466v-2.825h-2.466v2.825zm0 7.679h2.466v-2.825h-2.466v2.825zm-36.49 3.401h-3.322v11.341l-3.566 3.559" stroke="#161617" stroke-linecap="round" stroke-linejoin="round"/><path d="M587.943 485.979h113.426v-19.393l-3.562-3.559v-11.341h-3.322v-127.35h-10.518v-14.519l-10.243-7.188-29.066-45.075-29.066 45.075-10.243 7.188v14.519h-10.518v22.654m-6.888 119.596v19.393m6.888-138.99v104.697" stroke="#161617" stroke-linecap="round" stroke-linejoin="round"/><path d="M989.904 435.358h5.88v-5.674h-5.88V257.89h6.756l2.33-14.838-13.105-5.816v-66.334h5.705l2.047-23.491h-10.285V32.128h-5.061V147.41h-10.285l2.047 23.491h5.705v66.334l-13.105 5.816 2.33 14.838h6.755v171.794h-5.883v5.674h5.883v5.235h-7.046v45.386h32.259v-45.386h-7.047v-5.235z" fill="#0B0B0C"/><path d="M985.885 237.236h-5.066m0-66.334h5.066m13.105 72.15h-18.171m9.085 14.838h-9.085m9.085 171.794h-9.085m9.085 5.674h-9.085m0 5.236h9.085m-9.085-170.483h12.345m-12.345-68.807h9.085m-9.085-22.035h9.085m-9.085 138.264h12.345m-9.139-64.695l-3.206-4.729-3.201 4.729m12.814 0l-3.202-4.729-3.205 4.729m12.814 0l-3.202-4.729-3.205 4.729m-6.407-88.954l-3.206-4.725-3.201 4.725m12.814 0l-3.202-4.725-3.205 4.725m8.437-2.996l-2.03 2.995m-6.407-6.653l-3.206-4.729-3.201 4.729m12.814 0l-3.202-4.729-3.205 4.729m9.102-3.979l-2.695 3.979m-9.613-9.819h2.533m0-115.283h1.512m-4.045 40.296h4.045m-4.045 35.492h4.045m-4.045-65.168h2.533m-2.533 13.929h2.533m-2.533 26.528h2.533m-2.533 13.93h2.533m-2.533 22.159h2.533m-2.533 13.93h2.533m.482 140.815v39.42m0 10.475v101.822m-3.015 18.911v41.312m5.664-41.312v41.312m5.664-41.312v41.312m-16.389-248.743h5.061m0-66.334h-5.061m-13.105 72.15h18.166m-9.081 14.838h9.081m-9.081 171.794h9.081m-9.081 5.674h9.081m0 5.236h-9.081m9.081-170.483h-12.344m12.344-68.807h-9.081m9.081-22.035h-9.081m9.081 138.264h-12.344" stroke="#161617" stroke-linecap="round" stroke-linejoin="round"/><path d="M977.618 252.838l3.201-4.729 3.206 4.729m-12.814 0l3.201-4.729 3.206 4.729m-12.818 0l3.205-4.729 3.206 4.729m6.407-88.954l3.201-4.725 3.206 4.725m-12.814 0l3.201-4.725 3.206 4.725m-8.437-2.996l2.03 2.995m6.407-6.653l3.201-4.729 3.206 4.729m-12.814 0l3.201-4.729 3.206 4.729m-9.102-3.979l2.695 3.979m9.608-9.819h-2.528m0-115.283h-1.516m4.044 40.296h-4.044m4.044 35.492h-4.044m4.044-65.168h-2.528m2.528 13.929h-2.528m2.528 26.528h-2.528m2.528 13.93h-2.528m2.528 22.159h-2.528m2.528 13.93h-2.528m2.528 72.88v27.64m0-36.803V185.16m-3.014 88.879v39.42m0 10.475v101.822m-2.645 18.911v41.312m-5.664-41.312v41.312" stroke="#161617" stroke-linecap="round" stroke-linejoin="round"/><path d="M978.291 147.411h-10.285l2.047 23.491h5.705v66.334l-13.105 5.816 2.33 14.838h6.755v171.794h-5.883v5.675h5.883v5.235h-7.046v45.385h32.259v-45.385h-7.047v-5.235h5.88v-5.675h-5.88V257.89h6.756l2.33-14.838-13.105-5.816v-66.334h5.705l2.047-23.491h-15.346zm5.061 0V32.128h-5.061V147.41M980.819 1v31.128" stroke="#161617" stroke-linecap="round" stroke-linejoin="round"/><path d="M942.839 366.751c36.087 100.765-.374 100.877 0 100.765.378.112-36.083 0 0-100.765z" fill="#0B0B0C"/><path d="M942.835 485.145v-64.247m-.004 46.618c.377.112-36.083 0 0-100.765m.008 100.765c-.374.112 36.087 0 0-100.765" stroke="#161617" stroke-linecap="round" stroke-linejoin="round"/><path d="M722.359 338.117l4.397-2.668 2.67-14.908s-.311-2.489-3.534-5.335c-3.475-3.049-3.533-6.591-3.533-6.591s-.058 3.542-3.534 6.591c-3.218 2.825-3.533 5.335-3.533 5.335l2.67 14.908 4.397 2.668zm25.017-.001l4.397-2.667 2.67-14.909s-.311-2.489-3.533-5.334c-3.476-3.049-3.534-6.592-3.534-6.592s-.058 3.543-3.533 6.592c-3.218 2.825-3.534 5.334-3.534 5.334l2.67 14.897 4.397 2.679zm-12.565 147.03h8.446l-5.265-40.719h-6.361l-5.265 40.719h8.445z" fill="#0B0B0C"/><path d="M722.359 308.615s-.058 3.542-3.534 6.591c-3.218 2.825-3.533 5.335-3.533 5.335l2.67 14.908 4.397 2.668m-4.003-.001h16.568m-12.565-29.502s.058 3.543 3.533 6.592c3.223 2.825 3.534 5.334 3.534 5.334l-2.67 14.909-4.397 2.667m25.017-29.502s.058 3.543 3.534 6.592c3.222 2.825 3.533 5.334 3.533 5.334l-2.67 14.909-4.397 2.667m4.007 0h-16.571m12.564-29.502s-.058 3.543-3.533 6.592c-3.218 2.825-3.534 5.334-3.534 5.334l2.67 14.897 4.397 2.667m-12.564-8.62v114.943m-.001 0h-3.18l-5.265 40.719h8.445m-2.312-89.598h4.625m-4.625 3.999h4.625m-4.625 4.003h4.625m-2.312 40.877h3.18l5.265 40.719h-8.445m-7.566-6.824h15.177m-8.965-18.676l-1.022 15.063m3.779-15.063l1.021 15.063m-7.025-19.29h9.201m-24.12-134.878h14.134m10.883 0h14.134m-34.754 0l2.67 17.575m2.67-17.575l-2.67 17.575m22.347-17.575l2.67 17.575m2.67-17.575l-2.67 17.575m-27.766 4.941c.552-1.804 2.491-3.53 6.282-3.53s8.919 4.708 8.919 11.926m15.202-8.396c-.552-1.804-2.491-3.53-6.282-3.53s-8.919 4.708-8.919 11.926" stroke="#161617" stroke-linecap="round" stroke-linejoin="round"/><path d="M1144.09 465.105h-.16V277.254h-5.4v-9.47h5.4v-7.052h-7.06v-23.645c0 3.182-.7 9.819-8.11 11.893v-11.893c0 3.182-2.35 9.819-9.76 11.893v-11.893c0 3.182-2.36 9.819-9.76 11.893v-11.893c0 3.182-2.36 9.819-9.77 11.893v-11.893c0 3.182-2.35 9.819-9.76 11.893-7.41-2.074-9.77-8.711-9.77-11.893v11.893c-7.41-2.074-9.76-8.711-9.76-11.893v11.893c-7.41-2.074-9.77-8.711-9.77-11.893v11.893c-7.4-2.074-9.76-8.711-9.76-11.893v11.893c-7.41-2.074-8.1-8.711-8.1-11.893v23.645h-7.06v7.052h5.4v9.47h-5.4v187.851h-.16l-6.8-4.542v25.416h122.36v-25.416l-6.8 4.542z" fill="#0B0B0C"/><path d="M1084.84 257.828l4.88 2.904m-4.01 4.148l4.01 2.904m-4.88-9.956l-4.88 2.904m5.75 4.148l-4.02 2.904m4.02 6.566l4.01 2.904m-4.01-2.904l-4.02 2.904m-6.61-19.426l4.88 2.904m-2.28 4.148l4.01 2.904m-6.61-9.956l-4.89 2.904m7.49 4.148l-4.01 2.904m4.01 6.566l4.01 2.904m-4.01-2.904l-4.01 2.904m-8.36-19.426l4.88 2.904m-.54 4.148l4.02 2.904m-8.36-9.956l-4.88 2.904m9.22 4.148l-4.01 2.904m4.01 6.566l4.02 2.904m-4.02-2.904l-4.01 2.904m-10.09-19.426l4.88 2.904m1.2 4.148l4.01 2.904m-10.09-9.956l-4.89 2.904m10.97 4.148l-4.02 2.904m4.02 6.566l4.01 2.904m-4.01-2.904l-4.02 2.904m-4.01-12.374l4.01 2.904m-4.01 6.566l4.01 2.904m-16.71-9.47h8.68l4.02-2.904m36.12 16.315h-35.88m-4.26-3.941v156.91m4.02-165.551v3.875m8.03-3.875v3.875m8.02-3.875v3.875m8.03-3.875v3.875m8.03-3.875v3.875m-44.81 4.766h8.68l4.02-2.904m90.34 159.814H1035.5v-156.91" stroke="#161617" stroke-linecap="round" stroke-linejoin="round"/><path d="M1035.5 432.086v10.317h108.44M1040.9 284.654h-2.25v2.249h2.25v-2.249zm5.47 0h-2.25v2.249h2.25v-2.249zm-5.47 7.986h-2.25v2.248h2.25v-2.248zm5.47 0h-2.25v2.248h2.25v-2.248zm0 7.985h-2.25v2.248h2.25v-2.248zm-5.47 7.985h-2.25v2.249h2.25v-2.249zm5.47 0h-2.25v2.249h2.25v-2.249zm-5.47 7.986h-2.25v2.248h2.25v-2.248zm0 7.985h-2.25v2.248h2.25v-2.248zm0 7.985h-2.25v2.248h2.25v-2.248zm5.47 0h-2.25v2.248h2.25v-2.248zm0 7.986h-2.25v2.248h2.25v-2.248zm-5.47 7.985h-2.25v2.248h2.25v-2.248zm5.47 7.985h-2.25v2.248h2.25v-2.248zm-5.47 7.985h-2.25v2.249h2.25v-2.249zm5.47 0h-2.25v2.249h2.25v-2.249zm-5.47 7.986h-2.25v2.248h2.25v-2.248zm5.47 0h-2.25v2.248h2.25v-2.248zm0 7.985h-2.25v2.248h2.25v-2.248zm-5.47 7.985h-2.25v2.249h2.25v-2.249zm0 7.986h-2.25v2.248h2.25v-2.248zm5.47 0h-2.25v2.248h2.25v-2.248zm0 7.985h-2.25v2.248h2.25v-2.248zm-5.47 7.985h-2.25v2.248h2.25v-2.248zm0 7.985h-2.25v2.249h2.25v-2.249zm5.47 0h-2.25v2.249h2.25v-2.249zm-5.47 7.986h-2.25v2.248h2.25v-2.248zm5.47 0h-2.25v2.248h2.25v-2.248zm5.38-137.791h37.97m-4.01-4.82v4.82m-8.03-4.82v4.82m-8.03-4.82v4.82m-8.02-4.82v4.82m-8.03-4.82v4.82m-1.85 10.113h37.97m-4.01-5.455v5.455m-8.03-5.455v5.455m-8.03-5.455v5.455m-16.05-5.455v5.455m-1.85 10.109h37.97m-4.01-5.455v5.455m-8.03-5.455v5.455m-8.03-5.455v5.455m-8.02-5.455v5.455m-8.03-5.455v5.455m-1.85 10.114h37.97m-4.01-5.456v5.455m-16.06-5.455v5.455m-8.02-5.455v5.455m-8.03-5.455v5.455m-1.85 10.11h37.97m-4.01-5.455v5.455m-8.03-5.455v5.455m-16.05-5.455v5.455m-8.03-5.455v5.455m-1.85 10.113h37.97m-4.01-5.455v5.455m-8.03-5.455v5.455m-8.03-5.455v5.455m-16.05-5.455v5.455m-1.85 10.11h37.97m-4.01-5.455v5.454m-8.03-5.454v5.454m-8.03-5.454v5.454m-8.02-5.454v5.454m-8.03-5.454v5.454m-1.85 10.114h37.97m-4.01-5.455v5.455m-8.03-5.455v5.455m-16.05-5.455v5.455m-8.03-5.455v5.455m-1.85 10.109h37.97m-4.01-5.36v5.219m-8.03-5.219v5.219m-8.03-5.219v5.219m-8.02-5.219v5.219m-8.03-5.219v5.219m-1.85 10.254h37.97m-4.01-5.364v5.219m-8.03-5.219v5.219m-8.03-5.219v5.219m-8.02-5.219v5.219m-8.03-5.219v5.219m-1.85 10.254h37.97m-4.01-5.455v5.455m-8.03-5.455v5.455m-8.03-5.455v5.455m-8.02-5.455v5.455m-8.03-5.455v5.455m-1.85 10.114h37.97m-4.01-5.455v5.455m-8.03-5.455v5.455m-24.08-5.455v5.455m-1.85 10.109h37.97m-4.01-5.36v5.219m-8.03-5.219v5.219m-8.03-5.219v5.219m-8.02-5.219v5.219m-8.03-5.219v5.219m-1.85 10.254h37.97m-12.04-5.455v5.455m-16.05-5.455v5.455m-8.03-5.455v5.455m32.11 4.75v7.367m-8.03-7.367v7.367m-8.03-7.367v7.367m-8.02-7.367v7.367m-8.03-7.367v7.367m-2.94-173.432V248.98m9.77 11.752V248.98m9.75 11.752V248.98m9.78 11.752V248.98m9.76 11.752V248.98" stroke="#161617" stroke-linecap="round" stroke-linejoin="round"/><path d="M1035.5 441.573v10.312h108.44m-49.34-194.057l-4.88 2.904m4.02 4.148l-4.02 2.904m4.88-9.956l4.89 2.904m-5.75 4.148l4.01 2.904m-4.01 6.566l-4.02 2.904m4.02-2.904l4.01 2.904m6.62-19.426l-4.88 2.904m2.28 4.148l-4.02 2.904m6.62-9.956l4.88 2.904m-7.48 4.148l4.01 2.904m-4.01 6.566l-4.02 2.904m4.02-2.904l4.01 2.904m8.36-19.426l-4.89 2.904m.54 4.148l-4.01 2.904m8.36-9.956l4.88 2.904m-9.23 4.148l4.02 2.904m-4.02 6.566l-4.01 2.904m4.01-2.904l4.02 2.904m10.09-19.426l-4.88 2.904m-1.2 4.148l-4.01 2.904m10.09-9.956l4.88 2.904m-10.96 4.148l4.01 2.904m-4.01 6.566l-4.01 2.904m4.01-2.904l4.01 2.904m4.02-12.374l-4.02 2.904m4.02 6.566l-4.02 2.904m-38.9 183.309l6.79 4.543m-6.79-4.543l-6.8 4.543m-6.8-4.543l6.8 4.543m-6.8-4.543l-6.79 4.543m-6.81-4.543l6.81 4.543m-6.81-4.543l-6.79 4.543m-6.8-4.543l6.8 4.543m-6.8-4.543l-6.8 4.543m-6.79 7.321h122.35m-54.38-11.864l-6.8 4.543m6.8-4.543l6.8 4.543m6.8-4.543l-6.8 4.543m6.8-4.543l6.79 4.543m6.8-4.543l-6.8 4.543m6.8-4.543l6.8 4.543m6.79-4.543l-6.79 4.543m6.79-4.543l6.8 4.543m-5.55-197.322h-8.69l-4.01-2.904m-36.13 16.315h35.88m4.26-3.941v156.91m-4.01-165.551v3.875m-8.03-3.875v3.875m-8.03-3.875v3.875m-8.02-3.875v3.875m-8.03-3.875v3.875m44.81 4.766h-8.69l-4.01-2.904m12.7 12.548h2.25v-2.248h-2.25v2.248zm0 7.986h2.25v-2.248h-2.25v2.248zm-5.47 0h2.25v-2.248h-2.25v2.248zm5.47 7.985h2.25v-2.248h-2.25v2.248zm0 7.985h2.25v-2.248h-2.25v2.248zm-5.47 0h2.25v-2.248h-2.25v2.248zm5.47 7.986h2.25v-2.249h-2.25v2.249zm0 7.985h2.25v-2.248h-2.25v2.248zm-5.47 0h2.25v-2.248h-2.25v2.248zm0 7.985h2.25v-2.248h-2.25v2.248zm5.47 7.986h2.25v-2.248h-2.25v2.248zm-5.47 0h2.25v-2.248h-2.25v2.248zm5.47 7.985h2.25v-2.248h-2.25v2.248zm0 7.985h2.25v-2.248h-2.25v2.248zm-5.47 0h2.25v-2.248h-2.25v2.248zm5.47 7.985h2.25v-2.248h-2.25v2.248zm-5.47 0h2.25v-2.248h-2.25v2.248zm5.47 7.986h2.25v-2.249h-2.25v2.249zm0 7.985h2.25v-2.248h-2.25v2.248zm-5.47 0h2.25v-2.248h-2.25v2.248zm0 7.986h2.25v-2.249h-2.25v2.249zm5.47 7.985h2.25v-2.248h-2.25v2.248zm-5.47 0h2.25v-2.248h-2.25v2.248zm5.47 7.985h2.25v-2.248h-2.25v2.248zm-5.47 0h2.25v-2.248h-2.25v2.248zm5.47 7.985h2.25v-2.248h-2.25v2.248zm0 7.985h2.25V420.4h-2.25v2.248zm-5.47 0h2.25V420.4h-2.25v2.248zm0 7.986h2.25v-2.249h-2.25v2.249zm-5.38-140.035h-37.98m4.02-4.82v4.82m8.03-4.82v4.82m8.02-4.82v4.82m8.03-4.82v4.82m9.88 10.113h-37.98m4.02-5.455v5.455m8.03-5.455v5.455m16.05-5.455v5.455m8.03-5.455v5.455m1.85 10.109h-37.98m4.02-5.455v5.455m8.03-5.455v5.455m8.02-5.455v5.455m8.03-5.455v5.455m8.03-5.455v5.455m1.85 10.114h-37.98m4.02-5.456v5.455m8.03-5.455v5.455m8.02-5.455v5.455m8.03-5.455v5.455m9.88 10.11h-37.98m4.02-5.455v5.455m16.05-5.455v5.455m8.03-5.455v5.455m8.03-5.455v5.455m1.85 10.113h-37.98m4.02-5.455v5.455m8.03-5.455v5.455m8.02-5.455v5.455m8.03-5.455v5.455m8.03-5.455v5.455m1.85 10.11h-37.98m12.05-5.455v5.454m8.02-5.454v5.454m8.03-5.454v5.454m8.03-5.454v5.454m1.85 10.114h-37.98m4.02-5.455v5.455m8.03-5.455v5.455m8.02-5.455v5.455m16.06-5.455v5.455m1.85 10.109h-37.98m4.02-5.36v5.219m8.03-5.219v5.219m8.02-5.219v5.219m8.03-5.219v5.219m8.03-5.219v5.219m1.85 10.254h-37.98m4.02-5.364v5.219m8.03-5.219v5.219m8.02-5.219v5.219m16.06-5.219v5.219m1.85 10.254h-37.98m12.05-5.455v5.455m8.02-5.455v5.455m8.03-5.455v5.455m8.03-5.455v5.455m1.85 10.114h-37.98m12.05-5.455v5.455m8.02-5.455v5.455m16.06-5.455v5.455m1.85 10.109h-37.98m4.02-5.36v5.219m8.03-5.219v5.219m8.02-5.219v5.219m8.03-5.219v5.219m8.03-5.219v5.219m1.85 10.254h-37.98m4.02-5.455v5.455m8.03-5.455v5.455m8.02-5.455v5.455m16.06-5.455v5.455m-32.11 4.75v7.367m8.03-7.367v7.367m8.02-7.367v7.367m8.03-7.367v7.367m8.03-7.367v7.367m2.93-185.184v11.752h8.11m-17.87 0V248.98m-9.77 11.752V248.98m-9.76 11.752V248.98m-9.77 11.752V248.98m-39.06 11.752h-8.1m-14.01 211.695h7.24v13.552m21.53-13.552h-21.53v13.552h21.53v-13.552zm-21.53 3.111h21.53m-21.53 3.576h21.53m7.25-6.687h-7.25v13.552h7.25v-13.552zm21.53 0h-21.53v13.552h21.53v-13.552zm-21.53 3.111h21.53m-21.53 3.576h21.53m7.25-6.687h-7.25v13.552h7.25v-13.552zm21.53 0h-21.53v13.552h21.53v-13.552zm-21.53 3.111h21.53m-21.53 3.576h21.53m7.24-6.687h-7.24v13.552h7.24v-13.552zm21.54 0h-21.54v13.552h21.54v-13.552zm-21.54 3.111h21.53m-21.53 3.576h21.53" stroke="#161617" stroke-linecap="round" stroke-linejoin="round"/><path d="M1143.65 485.979v-13.552h7.25" stroke="#161617" stroke-linecap="round" stroke-linejoin="round"/><path d="M1144.09 465.106h-.16V277.254h-5.4v-9.47h5.4v-7.052h-7.06v-23.645c0 3.182-.7 9.819-8.11 11.893v-11.893c0 3.182-2.35 9.819-9.76 11.893v-11.893c0 3.182-2.36 9.819-9.76 11.893v-11.893c0 3.182-2.36 9.819-9.77 11.893v-11.893c0 3.182-2.35 9.819-9.76 11.893-7.41-2.074-9.77-8.711-9.77-11.893v11.893c-7.41-2.074-9.76-8.711-9.76-11.893v11.893c-7.41-2.074-9.77-8.711-9.77-11.893v11.893c-7.4-2.074-9.76-8.711-9.76-11.893v11.893c-7.41-2.074-8.1-8.711-8.1-11.893v23.645h-7.06v7.052h5.4v9.47h-5.4v187.852h-.16l-6.8-4.543v25.416h122.36v-25.416l-6.8 4.543z" stroke="#161617" stroke-linecap="round" stroke-linejoin="round"/><path d="M1415.03 436.545v-21.77c0-10.428-15.21-14.058-15.21-14.058 0-8.387-4.77-6.123-4.77-9.748 0 3.625-4.77 1.361-4.77 9.748v14.058h-3.4l2.27 4.978v16.78h-9.73v-17.078h-1.93v-13.83l1.93-3.348c0-7.882-.19-20.38-7.4-29.73-8.54-11.076-30.37-21.036-30.37-21.036s-21.83 9.956-30.37 21.036c-7.21 9.35-7.4 21.844-7.4 29.73l1.94 3.348v13.842h-1.85v17.078h-5.81c0-9.4-10.48-12.926-10.48-12.926s-9.77 3.29-10.44 11.972c-.68-8.682-10.45-11.972-10.45-11.972s-9.77 3.29-10.44 11.98c-.3-3.812-2.33-6.583-4.54-8.495v-7.338l2.27-4.978h-3.4V400.73c0-8.388-4.77-6.123-4.77-9.749 0 3.626-4.77 1.361-4.77 9.749v14.058h-3.4l2.27 4.978v7.346c-2.38 2.074-4.57 5.14-4.57 9.442h-11.53v-16.78l2.27-4.978h-2.27v-24.474l2.27-4.978h-2.27v-27.32l2.27-4.978h-3.41v-14.058c0-8.392-4.77-6.123-4.77-9.753 0 3.63-4.76 1.361-4.76 9.753v14.058h-3.4l2.26 4.978v27.32h-2.26l2.26 4.978v24.474h-2.26l2.26 4.978v3.854l-11.12 10.785V486h214.05v-33.335l3.4-5.666v-10.433l-3.4-.021zm-72.14-105.908c.36.831.49 1.748.36 2.646-.14.898-.52 1.74-1.11 2.429a4.857 4.857 0 01-2.24 1.463c-.87.267-1.8.283-2.67.045.32.749.83 1.402 1.48 1.9a4.833 4.833 0 006.6-.683c.53-.619.9-1.363 1.07-2.163a4.91 4.91 0 00-.12-2.407 4.796 4.796 0 00-1.27-2.05 4.813 4.813 0 00-2.1-1.18zm-1.24 18.286c1.64 0 2.97-1.328 2.97-2.966a2.968 2.968 0 00-2.97-2.966 2.968 2.968 0 00-2.97 2.966 2.968 2.968 0 002.97 2.966z" fill="#0B0B0C"/><path d="M1218.01 446.978h-9.54l3.41 5.666h6.13m-6.13.001v33.335h6.13m-9.54-39.002v-10.433h9.54" stroke="#161617" stroke-linecap="round" stroke-linejoin="round"/><path d="M1218.01 446.978h9.53l-3.4 5.666h-6.13m6.13.001v33.335h-6.13m9.53-39.002v-10.433h-9.53m23.15-21.77h9.53m1.14 4.991h-11.8m63.94 16.779h75.45m-143.98 0h62.74m-52.25-32.198a3.707 3.707 0 00-1.93 3.401v7.027m1.93-10.428c.6.333 1.1.827 1.44 1.428.35.6.51 1.283.49 1.973v7.027m-34.62-75.845h4.76m4.77 0H1218m-4.76 14.058h9.53m-4.77-10.433a3.716 3.716 0 00-1.93 3.402v7.052m1.93-10.454c.6.333 1.1.828 1.44 1.428.34.601.51 1.284.49 1.974v7.052m175.12 93.969h-9.53l3.4 5.666h6.13m-6.13.001v33.335h6.13m-9.53-39.002v-10.433h9.53" stroke="#161617" stroke-linecap="round" stroke-linejoin="round"/><path d="M1395.05 446.978h9.53l-3.4 5.666h-6.13m6.13.001v33.335h-6.13m9.53-39.002v-10.433h-9.53m19.98 16.1h-13.85m3.4-5.667h13.85m-3.4-10.433h-10.45m-3.63 0v-16.78l2.27-4.99h-3.4v-14.058h-4.77m-4.77 14.058h9.54m1.13 4.991h-11.8m5.9-15.419c-.6.333-1.1.827-1.45 1.428-.34.6-.5 1.283-.48 1.973v7.027" stroke="#161617" stroke-linecap="round" stroke-linejoin="round"/><path d="M1395.05 404.347a3.7 3.7 0 011.45 1.428c.34.6.51 1.283.48 1.973v7.027m11.13 5.671c.6.334 1.1.828 1.44 1.429.34.6.51 1.283.48 1.972v7.031h-3.85v-7.031a3.68 3.68 0 01.48-1.973 3.7 3.7 0 011.45-1.428m-66.46 2.932c.61.341 1.12.845 1.47 1.456.35.611.52 1.306.49 2.008v7.152h-3.92v-7.152c-.02-.701.15-1.396.49-2.007.35-.611.86-1.115 1.47-1.457zm-10.69 0c.61.342 1.12.846 1.46 1.457.35.611.52 1.306.5 2.007v7.152h-3.93v-7.152c-.02-.702.15-1.397.5-2.008.34-.611.85-1.115 1.47-1.456zm-13.56 0c.62.341 1.13.845 1.47 1.456.35.611.52 1.306.5 2.008v7.152h-3.93v-7.152c-.02-.702.15-1.397.49-2.008.35-.611.86-1.115 1.47-1.456m-6.77 0c.61.341 1.12.845 1.47 1.456.34.611.52 1.306.49 2.008v7.152h-3.93v-7.152c-.02-.702.15-1.397.5-2.008.34-.611.85-1.115 1.47-1.456m-86.49 62.601h164.78m-7.26-39.001h-4.09m-4.99 0h-4.09m-4.99 0h-4.08m-5 0h-4.08m-5 0h-4.09m-4.99 0h-4.08m-5 0h-4.08m-4.99 0h-4.09m-4.99 0h-4.09m-5 0h-4.08m-4.99 0h-4.09m-4.99 0h-4.09m-4.99 0h-4.09m-4.99 0h-4.09m-4.99 0h-4.08m-5 0h-4.08m-5 0h-4.09m182.73-32.203h-11.81m-30.65 40.931c0 .908 3.86 1.02 3.86 5.558v24.715m-3.86-30.273c0 .908-3.86 1.02-3.86 5.558v24.715m7.72-17.348h-7.72m7.72 10.093h-7.72m-15.66-23.018c0 .908 3.86 1.02 3.86 5.558v24.715m-3.86-30.273c0 .908-3.86 1.02-3.86 5.558v24.715m7.72-17.348h-7.72m7.72 10.093h-7.72m-15.66-23.018c0 .908 3.86 1.02 3.86 5.558v24.715m-3.86-30.273c0 .908-3.86 1.02-3.86 5.558v24.715m7.72-17.348h-7.72m7.72 10.093h-7.72m-15.66-23.018c0 .908 3.86 1.02 3.86 5.558v24.715m-3.86-30.273c0 .908-3.86 1.02-3.86 5.558v24.715m7.72-17.348h-7.72m7.72 10.093h-7.72m-15.66-23.018c0 .908 3.86 1.02 3.86 5.558v24.715m-3.86-30.273c0 .908-3.86 1.02-3.86 5.558v24.715m7.72-17.348h-7.72m7.72 10.093h-7.72m-15.66-23.018c0 .908 3.86 1.02 3.86 5.558v24.715m-3.86-30.273c0 .908-3.86 1.02-3.86 5.558v24.715m7.72-17.348h-7.72m7.72 10.093h-7.72m-15.66-23.018c0 .908 3.86 1.02 3.86 5.558v24.715m-3.86-30.273c0 .908-3.86 1.02-3.86 5.558v24.715m7.72-17.348h-7.72m7.72 10.093h-7.72m-15.66-23.018c0 .908 3.86 1.02 3.86 5.558v24.715m-3.86-30.273c0 .908-3.86 1.02-3.86 5.558v24.715m7.72-17.348h-7.72m7.72 10.093h-7.72m-8.16-120.746h-11.81m11.81 32.311h-11.81m0 24.486h5.9m-5.9 21.77v-12.926m5.9-8.844h5.91m0 4.991h-11.81m-11.12 66.213h10.9m75.81-56.482c0 1.174 7.25 1.564 7.25 7.052m-7.24-7.052c0 1.174-7.26 1.564-7.26 7.052m-13.63-7.052c0 1.174 7.25 1.564 7.25 7.052m-7.25-7.052c0 1.174-7.25 1.564-7.25 7.052m-13.63-12.93c2.15.807 4.15 1.987 5.9 3.485m-5.9 2.393c0 1.174 7.25 1.564 7.25 7.052m-7.25-12.93a19.7 19.7 0 00-5.91 3.485m5.91 2.393c0 1.174-7.26 1.564-7.26 7.052m67.15-30.925h35.83m0-3.347h-37.77m1.94 17.19h35.83m-17.9 0v17.078m28.6-13.167c-.62.341-1.13.845-1.47 1.456a3.818 3.818 0 00-.5 2.008v7.152h3.93v-7.152a3.905 3.905 0 00-.49-2.008 3.878 3.878 0 00-1.47-1.456m13.55 0c-.62.341-1.13.845-1.47 1.456a3.818 3.818 0 00-.5 2.008v7.152h3.93v-7.152a3.904 3.904 0 00-.49-2.007 3.887 3.887 0 00-1.47-1.457m6.77 0c-.61.341-1.12.845-1.47 1.456a3.905 3.905 0 00-.49 2.008v7.152h3.92v-7.152a3.717 3.717 0 00-.49-2.007 3.751 3.751 0 00-1.47-1.457m4.82-17.754h-35.84m0-3.347h37.77m-1.93 17.19h-35.84m17.9 0v17.078m-16.66-105.908c.36.831.49 1.748.36 2.646-.14.898-.52 1.74-1.11 2.429a4.857 4.857 0 01-2.24 1.463c-.87.267-1.8.283-2.67.045.32.749.83 1.402 1.48 1.9a4.833 4.833 0 006.6-.683c.53-.619.9-1.363 1.07-2.163a4.91 4.91 0 00-.12-2.407 4.796 4.796 0 00-1.27-2.05 4.813 4.813 0 00-2.1-1.18v0zm-1.24 18.29v2.584m0-11.395v2.874m0 5.933c1.64 0 2.97-1.328 2.97-2.966a2.968 2.968 0 00-2.97-2.966 2.968 2.968 0 00-2.97 2.966 2.968 2.968 0 002.97 2.966zm48.63 51.794h4.77m-153.89 0h4.77m4.76 0h-4.76m-33.83-15.419h5.9m0 0h5.91" stroke="#161617" stroke-linecap="round" stroke-linejoin="round"/><path d="M1415.03 436.545v-21.77c0-10.428-15.21-14.058-15.21-14.058 0-8.387-4.77-6.123-4.77-9.748 0 3.625-4.77 1.361-4.77 9.748v14.058h-3.4l2.27 4.978v16.78h-9.73v-17.078h-1.93v-13.83l1.93-3.348c0-7.882-.19-20.38-7.4-29.73-8.54-11.076-30.37-21.036-30.37-21.036s-21.83 9.956-30.37 21.036c-7.21 9.35-7.4 21.844-7.4 29.73l1.94 3.348v13.842h-1.85v17.078h-5.81c0-9.4-10.48-12.926-10.48-12.926s-9.77 3.29-10.44 11.972c-.68-8.682-10.45-11.972-10.45-11.972s-9.77 3.29-10.44 11.98c-.3-3.812-2.33-6.583-4.54-8.495v-7.338l2.27-4.978h-3.4V400.73c0-8.388-4.77-6.123-4.77-9.749 0 3.626-4.77 1.361-4.77 9.749v14.058h-3.4l2.27 4.978v7.346c-2.38 2.074-4.57 5.14-4.57 9.442h-11.53v-16.78l2.27-4.978h-2.27v-24.474l2.27-4.978h-2.27v-27.32l2.27-4.978h-3.41v-14.058c0-8.392-4.77-6.123-4.77-9.753 0 3.63-4.76 1.361-4.76 9.753v14.058h-3.4l2.26 4.978v27.32h-2.26l2.26 4.978v24.474h-2.26l2.26 4.978v3.854l-11.12 10.785V486h214.05v-33.335l3.4-5.666v-10.433l-3.4-.021z" stroke="#161617" stroke-linecap="round" stroke-linejoin="round"/><path d="M937.785 434.065c-30.498-9.471-82.538-25.603-93.147-30.627a9.992 9.992 0 01-2.391-1.522c-5.506-4.895 4.604-11.752 4.604-11.752h-39.583s10.107 6.857 4.605 11.752a9.998 9.998 0 01-2.392 1.522c-10.613 5.024-62.649 21.156-93.147 30.627l1.898 9.955 5.576 29.245h-3.529v5.181h4.43v7.533h204.706v-7.533h4.418v-5.181h-3.53l5.577-29.245 1.905-9.955z" fill="#0B0B0C"/><path d="M930.312 473.265H827.058m0-39.201h110.728m-8.363 44.382H827.058m0-34.426h108.83m0 0l-5.577 29.245m1.902-29.245l-5.576 29.245m-9.193-29.245l-5.577 29.245m1.902-29.245l-5.576 29.245m-9.194-29.245l-5.576 29.245m1.902-29.245l-5.577 29.245m-9.193-29.245l-5.576 29.245m1.901-29.245l-5.576 29.245m-9.193-29.245l-5.577 29.245m1.902-29.245l-5.576 29.245m-9.193-29.245l-5.577 29.245m1.902-29.245l-5.577 29.245m7.827-21.786h14.77m-17.02 11.818h14.686m6.009-11.818h14.769m-17.02 11.818h14.687m6.008-11.818h14.77m-17.021 11.818h14.687m6.008-11.818h14.77m-17.02 11.818h14.686m6.009-11.818h14.769m-17.02 11.818h14.686m-89.887-11.818h-11.51m9.259 11.818h-9.259m102.369 15.149h-4.65v7.533m-15.164-7.533h-4.651v7.533h4.651v-7.533zm-19.815 0h-4.65v7.533h4.65v-7.533zm-19.814 0h-4.651v7.533h4.651v-7.533zm-19.815 0h-4.65v7.533h4.65v-7.533zm74.608 7.533h-97.719m15.185-84.067h-15.185m13.549-3.174h-13.549m14.437-3.078h-14.437m96.17 38.405c-30.498-9.471-82.538-25.603-93.147-30.627a9.998 9.998 0 01-2.392-1.522m80.964 32.149c-30.498-9.471-82.538-25.603-93.147-30.627a10.018 10.018 0 01-2.392-1.522m76.854 32.149c-26.416-8.201-68.989-21.405-86.811-28.055m68.089 28.054c-22.526-6.994-56.799-17.621-77.456-24.727m54.585 24.727c-18.743-5.807-45.62-14.157-66.02-20.886m34.841 20.887c-14.25-4.426-33.197-10.304-50.429-15.826m19.25 15.826c-10.032-3.116-22.393-6.953-34.846-10.877m-27.363 50.077h103.25m0-39.201H716.334m8.359 44.382h102.365m0-34.426H718.232m0 0l5.576 29.245m-1.902-29.245l5.577 29.245m9.193-29.245l5.576 29.245m-1.901-29.245l5.576 29.245m9.193-29.245l5.577 29.245m-1.902-29.245l5.576 29.245m9.193-29.245l5.577 29.245m-1.902-29.245l5.577 29.245m9.193-29.245l5.576 29.245m-1.902-29.245l5.577 29.245m9.193-29.245l5.576 29.245m-1.901-29.245l5.576 29.245m-7.831-21.786h-14.769m17.024 11.818h-14.687m-6.012-11.818h-14.77m17.024 11.818h-14.686m-6.012-11.818h-14.77m17.024 11.818h-14.686m-6.013-11.818h-14.769m17.024 11.818h-14.687m-6.012-11.818h-14.77m17.025 11.818h-14.687m89.884-11.818h11.51m-9.256 11.818h9.256m-102.365 15.149h4.65v7.533m15.164.004h4.651v-7.533h-4.651v7.533zm19.814 0h4.651v-7.533h-4.651v7.533zm19.811 0h4.65v-7.533h-4.65v7.533zm19.814 0h4.651v-7.533h-4.651v7.533zm-74.603-.004h97.715m-15.185-84.067h15.185m-13.549-3.174h13.549m-14.433-3.078h14.433" stroke="#161617" stroke-linecap="round" stroke-linejoin="round"/><path d="M730.892 434.065c30.498-9.471 82.534-25.603 93.147-30.627a9.998 9.998 0 002.392-1.522m-80.961 32.149c30.499-9.471 82.534-25.603 93.148-30.627a9.992 9.992 0 002.391-1.522m-76.854 32.149c26.417-8.201 68.994-21.405 86.816-28.055m-68.097 28.054c22.526-6.994 56.798-17.621 77.456-24.727m-54.586 24.727c18.743-5.807 45.621-14.157 66.021-20.886m-34.842 20.887c14.251-4.426 33.218-10.304 50.429-15.826m-19.249 15.825c10.031-3.115 22.389-6.948 34.841-10.872" stroke="#161617" stroke-linecap="round" stroke-linejoin="round"/><path d="M937.785 434.065c-30.498-9.471-82.538-25.603-93.147-30.627a9.992 9.992 0 01-2.391-1.522c-5.506-4.895 4.604-11.752 4.604-11.752h-39.583s10.107 6.857 4.605 11.752a9.998 9.998 0 01-2.392 1.522c-10.613 5.024-62.649 21.156-93.147 30.627l1.898 9.955 5.576 29.245h-3.529v5.181h4.43v7.533h204.706v-7.533h4.418v-5.181h-3.53l5.577-29.245 1.905-9.955z" stroke="#161617" stroke-linecap="round" stroke-linejoin="round"/><path d="M595.159 407.072c23.797 66.446-.249 66.52 0 66.446.245.074-23.796 0 0-66.446z" fill="#0B0B0C"/><path d="M595.147 485.145v-42.37m.012 30.743c.245.074-23.796 0 0-66.446m0 66.446c-.249.075 23.797 0 0-66.446" stroke="#161617" stroke-linecap="round" stroke-linejoin="round"/><path d="M1163.43 338.117l4.4-2.668 2.67-14.908s-.31-2.489-3.54-5.335c-3.47-3.049-3.53-6.591-3.53-6.591s-.06 3.542-3.53 6.591c-3.22 2.825-3.54 5.335-3.54 5.335l2.67 14.896 4.4 2.68zm25.02-.001l4.4-2.667 2.67-14.909s-.32-2.489-3.54-5.334c-3.47-3.049-3.53-6.592-3.53-6.592s-.06 3.543-3.54 6.592c-3.21 2.825-3.53 5.334-3.53 5.334l2.67 14.909 4.4 2.667zm-12.57 147.03h8.45l-5.27-40.719h-6.36l-5.26 40.719h8.44z" fill="#0B0B0C"/><path d="M1163.43 308.615s-.06 3.542-3.53 6.591c-3.22 2.825-3.54 5.335-3.54 5.335l2.67 14.896 4.4 2.667m-4 .012H1176" stroke="#161617" stroke-linecap="round" stroke-linejoin="round"/><path d="M1163.43 308.614s.06 3.543 3.53 6.592c3.23 2.825 3.54 5.334 3.54 5.334l-2.67 14.909-4.4 2.667m25.02-29.502s.06 3.543 3.53 6.592c3.22 2.825 3.54 5.334 3.54 5.334l-2.67 14.909-4.4 2.667m4.01 0h-16.58" stroke="#161617" stroke-linecap="round" stroke-linejoin="round"/><path d="M1188.45 308.614s-.06 3.543-3.54 6.592c-3.21 2.825-3.53 5.334-3.53 5.334l2.67 14.909 4.4 2.667m-12.57-8.632v114.943m0 0h-3.18l-5.26 40.719h8.44m-2.31-89.598h4.63m-4.63 3.999h4.63m-4.63 4.003h4.63m-2.32 40.877h3.18l5.27 40.719h-8.45m-7.56-6.824h15.17m-8.96-18.676l-1.02 15.063m3.78-15.063l1.02 15.063m-7.03-19.29h9.2m-24.12-134.878h14.14m10.88 0h14.14m-34.76 0l2.67 17.575m2.67-17.575l-2.67 17.575m22.35-17.575l2.67 17.575m2.67-17.575l-2.67 17.575m-27.76 4.941c.56-1.804 2.5-3.53 6.29-3.53s8.92 4.708 8.92 11.926" stroke="#161617" stroke-linecap="round" stroke-linejoin="round"/><path d="M1191.08 343.057c-.55-1.804-2.49-3.53-6.28-3.53s-8.92 4.708-8.92 11.926" stroke="#161617" stroke-linecap="round" stroke-linejoin="round"/><path d="M283.533 360.21c38.085 106.331-.415 106.451 0 106.331.416.12-38.08 0 0-106.331z" fill="#0B0B0C"/><path d="M283.533 485.145v-67.798m-.004 49.194c.415.12-38.08 0 0-106.331m.004 106.331c-.415.12 38.085 0 0-106.331" stroke="#161617" stroke-linecap="round" stroke-linejoin="round"/><path d="M1028.4 467.047s31.06-21.571 12.94-30.17c7.77-21.546-3.63-40.507-12.94-40.507-9.3 0-20.7 18.961-12.94 40.507-18.115 8.62 12.94 30.17 12.94 30.17z" fill="#0B0B0C"/><path d="M1028.4 467.047s-31.055-21.571-12.94-30.17c-7.76-21.546 3.63-40.507 12.94-40.507m0 70.677s31.06-21.571 12.94-30.17c7.77-21.546-3.63-40.507-12.94-40.507m0 14.485v75.124m9.31-39.831l-9.31 9.359m-9.31-9.359l9.31 9.359" stroke="#161617" stroke-linecap="round" stroke-linejoin="round"/><path d="M700.481 462.426s38.641-26.81 16.102-37.533c9.658-26.81-4.522-50.401-16.102-50.401-11.581 0-25.744 23.591-16.098 50.401-22.539 10.723 16.098 37.533 16.098 37.533z" fill="#0B0B0C"/><path d="M700.481 462.426s-38.637-26.81-16.098-37.533c-9.663-26.81 4.517-50.401 16.098-50.401m0 87.934s38.641-26.81 16.102-37.533c9.658-26.81-4.522-50.401-16.102-50.401m0 18.024v93.463m11.58-49.555l-11.58 11.644M688.9 436.424l11.581 11.644" stroke="#161617" stroke-linecap="round" stroke-linejoin="round"/><path d="M488.148 465.508s33.579-23.3 13.993-32.617c8.391-23.301-3.928-43.801-13.993-43.801-10.065 0-22.389 20.5-13.994 43.801-19.586 9.317 13.994 32.617 13.994 32.617z" fill="#0B0B0C"/><path d="M488.148 465.508s-33.58-23.3-13.994-32.617c-8.395-23.301 3.929-43.801 13.994-43.801m0 76.418s33.579-23.3 13.993-32.617c8.391-23.301-3.928-43.801-13.993-43.801m0 15.667v81.222m10.065-43.062l-10.065 10.117m-10.065-10.117l10.065 10.117" stroke="#161617" stroke-linecap="round" stroke-linejoin="round"/><path d="M1424.63 470.349s25.64-17.792 10.69-24.89c6.41-17.787-3-33.442-10.69-33.442-7.68 0-17.09 15.655-10.68 33.442-14.96 7.098 10.68 24.89 10.68 24.89z" fill="#0B0B0C"/><path d="M1424.63 470.349s-25.64-17.792-10.68-24.89c-6.41-17.787 3-33.442 10.68-33.442m0 58.332s25.64-17.792 10.69-24.89c6.41-17.787-3-33.442-10.69-33.442m0 11.942v62.02m7.69-32.882l-7.69 7.728m-7.68-7.728l7.68 7.728" stroke="#161617" stroke-linecap="round" stroke-linejoin="round"/><path d="M14.61 471.12s24.373-16.908 10.156-23.673c6.091-16.913-2.853-31.792-10.157-31.792-7.303 0-16.247 14.879-10.156 31.792-14.217 6.765 10.156 23.673 10.156 23.673z" fill="#0B0B0C"/><path d="M14.61 471.12s-24.374-16.908-10.157-23.673c-6.091-16.913 2.853-31.792 10.156-31.792" stroke="#161617" stroke-linecap="round" stroke-linejoin="round"/><path d="M14.61 471.12s24.373-16.908 10.156-23.673c6.091-16.913-2.853-31.792-10.157-31.792m.001 11.369v58.955m7.303-31.257l-7.304 7.342m-7.304-7.342l7.304 7.342" stroke="#161617" stroke-linecap="round" stroke-linejoin="round"/><path d="M521.756 408.686h-4.397l-4.767 76.455h13.931l-4.767-76.455zm-2.197-91.518a2.607 2.607 0 002.608-2.605 2.607 2.607 0 00-2.608-2.605 2.606 2.606 0 100 5.21z" fill="#0B0B0C"/><path d="M523.73 405.948a4.31 4.31 0 00-8.389-1.979 4.31 4.31 0 008.389 1.979zm1.269-56.386l5.443-22.202-8.466-6.57h-4.838l-8.466 6.57 5.444 22.202" fill="#0B0B0C"/><path d="M512.604 357.041c-.191-3.082 2.247-3.514 3.779-2.941 3.052 1.132 3.176 6.11 3.176 6.11v40.474m0-79.894h-2.421l-8.466 6.57 5.444 22.202h5.443m0-28.772h2.417l8.466 6.57-5.443 22.202h-5.44" stroke="#161617" stroke-linecap="round" stroke-linejoin="round"/><path d="M526.51 357.041c.191-3.082-2.246-3.514-3.778-2.941-3.052 1.132-3.173 6.11-3.173 6.11v40.474m0-83.516a2.607 2.607 0 002.608-2.605 2.607 2.607 0 00-2.608-2.605 2.606 2.606 0 100 5.21zm0-5.21v-4.418" stroke="#161617" stroke-linecap="round" stroke-linejoin="round"/><path d="M523.73 405.948a4.31 4.31 0 00-8.389-1.979 4.31 4.31 0 008.389 1.979z" stroke="#161617" stroke-linecap="round" stroke-linejoin="round"/><path d="M517.359 408.686l-4.767 76.455h6.967m2.197-76.455l4.767 76.455h-6.964M508.672 327.36h21.77m-13.503 22.202l-1.702-22.202 4.322-6.57m2.616 28.772l1.703-22.202-4.319-6.57m4.647 127.242h-9.297m-.121 1.891h9.559m-4.788-5.67v-16.461m-6.71 53.238h13.416m-8.437-26.054l-1.059 21.973m4.538-21.973l1.059 21.973" stroke="#161617" stroke-linecap="round" stroke-linejoin="round"/></svg>