<svg width="76" height="20" viewBox="0 0 76 20" fill="none" xmlns="http://www.w3.org/2000/svg">
<g opacity="0.2" clip-path="url(#clip0)">
<path d="M2.60289 19.0553V20H2.17368V19.4489H0.0478947V16.9439H0.505789V19.0553H1.76895V16.9442H2.23079V19.0553H2.60289ZM5.40105 19.0589V19.4489H3.52263V16.9439H5.35105V17.3342H3.98789V17.9852H5.1971V18.3684H3.98763V19.0592H5.40105V19.0589ZM8.63947 16.9442V19.4489H8.17421V18.3752H6.87868V19.4489H6.41368V16.9439H6.87868V17.9781H8.17421V16.9439H8.63921L8.63947 16.9442ZM11.6537 17.3376H10.8234V19.4489H10.3618V17.3376H9.53526V16.9442H11.6537V17.3376ZM13.5789 16.9442C13.7963 16.9442 13.9847 16.9797 14.1447 17.0513C14.3068 17.1229 14.4308 17.2255 14.5166 17.3592C14.6026 17.4926 14.6455 17.6513 14.6455 17.835C14.6455 18.0166 14.6026 18.175 14.5166 18.311C14.4308 18.4447 14.3068 18.5471 14.1445 18.6189C13.9847 18.6902 13.7963 18.726 13.5792 18.726H13.0137V19.4489H12.5487V16.9439H13.5789V16.9442ZM13.5579 18.3324C13.7605 18.3324 13.9142 18.2895 14.0192 18.2034C14.1245 18.1179 14.1768 17.995 14.1768 17.835C14.1768 17.6753 14.1242 17.5524 14.0192 17.4666C13.9142 17.3805 13.7605 17.3376 13.5576 17.3376H13.0137V18.3324H13.5576H13.5579ZM19.5805 19.0553V19.9821H19.1511V19.4489H17.2295V19.9821H16.7966L16.8003 19.0553H16.9074C17.065 19.0481 17.1747 18.9324 17.2366 18.7081C17.3011 18.4816 17.3405 18.1581 17.355 17.7384L17.3834 16.9439H19.2192V19.0553H19.5805ZM17.7626 17.7816C17.7508 18.1058 17.7245 18.3766 17.6839 18.5937C17.6434 18.8084 17.5789 18.9621 17.4908 19.0553H18.7611V17.3376H17.7805L17.7626 17.7813V17.7816ZM22.3911 19.0589V19.4489H20.5121V16.9439H22.3411V17.3342H20.9776V17.9852H22.1871V18.3684H20.9776V19.0592H22.3908L22.3911 19.0589ZM25.5432 16.9442V19.4489H25.0853V17.3376H24.0974L24.0758 17.9639C24.0639 18.3145 24.0353 18.5997 23.99 18.8192C23.9447 19.0363 23.8718 19.2021 23.7716 19.3166C23.6716 19.4287 23.5332 19.4847 23.3566 19.4847C23.2945 19.4847 23.21 19.4729 23.1026 19.4489L23.1347 19.0445C23.1658 19.0542 23.2016 19.0589 23.2421 19.0589C23.3876 19.0589 23.4903 18.9729 23.55 18.801C23.6118 18.6271 23.65 18.3539 23.6642 17.9818L23.7 16.9439H25.5429L25.5432 16.9442ZM27.9011 19.4847C27.6458 19.4847 27.4158 19.4297 27.2105 19.32C27.0105 19.2129 26.8435 19.0533 26.7274 18.8584C26.6105 18.6605 26.5521 18.44 26.5521 18.1966C26.5521 17.9531 26.6105 17.7337 26.7274 17.5381C26.8421 17.3422 27.0095 17.1822 27.2105 17.0766C27.4158 16.9642 27.6458 16.9081 27.9011 16.9081C28.1563 16.9081 28.3866 16.9642 28.5918 17.0766C28.792 17.1817 28.9592 17.3401 29.0747 17.5345C29.1918 17.73 29.2503 17.9508 29.2503 18.1966C29.2503 18.4421 29.1918 18.6629 29.0747 18.8584C28.9587 19.0533 28.7917 19.2128 28.5918 19.32C28.3866 19.4297 28.1563 19.4847 27.9011 19.4847ZM27.9011 19.0768C28.0584 19.0792 28.2138 19.0409 28.3521 18.9658C28.4855 18.8895 28.5905 18.7845 28.6668 18.651C28.7439 18.5121 28.7833 18.3554 28.7813 18.1966C28.7813 18.0295 28.7432 17.8792 28.6668 17.7455C28.5938 17.6129 28.4847 17.5038 28.3521 17.4308C28.2145 17.3534 28.0589 17.3139 27.9011 17.3163C27.7342 17.3163 27.5839 17.3545 27.4503 17.4308C27.3166 17.5045 27.2116 17.6097 27.1353 17.7455C27.0579 17.8831 27.0184 18.0387 27.0208 18.1966C27.0208 18.3634 27.0589 18.515 27.1353 18.651C27.2116 18.7845 27.3166 18.8895 27.4503 18.9658C27.5885 19.0409 27.7437 19.0792 27.9011 19.0768ZM31.9079 18.1463C32.0676 18.1892 32.1895 18.2631 32.2729 18.3681C32.3563 18.4708 32.3982 18.5997 32.3982 18.7547C32.3982 18.9742 32.3171 19.1447 32.1547 19.2666C31.9926 19.3881 31.7576 19.4489 31.45 19.4489H30.2618V16.9439H31.3818C31.6634 16.9439 31.8829 17 32.0403 17.1124C32.1979 17.2245 32.2766 17.3829 32.2766 17.5881C32.2766 17.7195 32.2442 17.8329 32.18 17.9281C32.1179 18.0237 32.0271 18.0963 31.9079 18.1466V18.1463ZM30.72 18.0139H31.3426C31.4929 18.0139 31.6074 17.9842 31.6861 17.9245C31.7647 17.865 31.8042 17.7766 31.8042 17.6597C31.8042 17.5429 31.7647 17.4545 31.6861 17.395C31.6074 17.3329 31.4929 17.3018 31.3426 17.3018H30.72V18.0139ZM31.4355 19.091C31.7647 19.091 31.9295 18.9671 31.9295 18.7189C31.9295 18.4755 31.7647 18.3539 31.4355 18.3539H30.72V19.091H31.4355ZM34.5813 19.4847C34.326 19.4847 34.0958 19.4297 33.8908 19.32C33.6908 19.2129 33.5237 19.0533 33.4076 18.8584C33.2908 18.6605 33.2324 18.44 33.2324 18.1966C33.2324 17.9531 33.2908 17.7337 33.4076 17.5381C33.5224 17.3422 33.6898 17.1822 33.8908 17.0766C34.0958 16.9642 34.326 16.9081 34.5813 16.9081C34.8366 16.9081 35.0668 16.9642 35.2718 17.0766C35.4771 17.1863 35.6382 17.3389 35.755 17.5345C35.8718 17.73 35.9303 17.9508 35.9303 18.1966C35.9303 18.4421 35.8718 18.6629 35.755 18.8584C35.6389 19.0533 35.4719 19.2129 35.2718 19.32C35.0668 19.4297 34.8366 19.4847 34.5813 19.4847ZM34.5813 19.0768C34.7484 19.0768 34.8987 19.04 35.0321 18.9658C35.1638 18.8914 35.2727 18.7826 35.3471 18.651C35.4241 18.5121 35.4636 18.3554 35.4616 18.1966C35.4616 18.0295 35.4234 17.8792 35.3471 17.7455C35.2741 17.6129 35.1648 17.5037 35.0321 17.4308C34.8946 17.3534 34.7391 17.3139 34.5813 17.3163C34.4142 17.3163 34.2639 17.3545 34.1305 17.4308C33.9968 17.5045 33.8918 17.6097 33.8155 17.7455C33.7382 17.8831 33.6987 18.0387 33.701 18.1966C33.701 18.3634 33.7392 18.515 33.8155 18.651C33.8918 18.7845 33.9968 18.8895 34.1305 18.9658C34.2687 19.041 34.424 19.0792 34.5813 19.0768ZM36.9421 16.9442H37.4V18.7226L38.7455 16.9442H39.1784V19.4489H38.7205V17.6739L37.375 19.4489H36.9421V16.9439V16.9442ZM38.055 16.7758C37.8403 16.7758 37.6779 16.7318 37.5682 16.6434C37.4608 16.5552 37.4061 16.4263 37.4037 16.2571H37.7292C37.7316 16.3452 37.7603 16.4131 37.8153 16.461C37.87 16.5087 37.95 16.5326 38.055 16.5326C38.1576 16.5326 38.2374 16.5089 38.2947 16.461C38.3542 16.4134 38.3853 16.3452 38.3876 16.2571H38.7097C38.7074 16.4239 38.65 16.5529 38.5379 16.6434C38.4282 16.7318 38.2671 16.7758 38.055 16.7758ZM41.861 16.9442H42.3189V18.7226L43.6645 16.9442H44.0974V19.4489H43.6395V17.6739L42.2939 19.4489H41.861V16.9439V16.9442ZM47.5195 16.9442V19.4489H47.0542V18.3752H45.7587V19.4489H45.2937V16.9439H45.7587V17.9781H47.0542V16.9439H47.5195V16.9442ZM51.5784 18.1929C51.5784 18.5221 51.4639 18.7824 51.235 18.9729C51.006 19.1639 50.6803 19.2676 50.2582 19.2845V19.5492H49.8287V19.2842C49.4063 19.2629 49.0797 19.1579 48.8482 18.9695C48.6192 18.781 48.5047 18.5221 48.5047 18.1931C48.5047 17.8637 48.6192 17.6047 48.8482 17.4163C49.0797 17.2255 49.4063 17.1195 49.8287 17.0979V16.8439H50.2582V17.0979C50.6803 17.1195 51.006 17.2255 51.235 17.4163C51.4639 17.6047 51.5784 17.8637 51.5784 18.1929ZM50.2582 18.9192C50.5445 18.8979 50.7616 18.8263 50.9095 18.7047C51.0574 18.5805 51.1313 18.4089 51.1313 18.1892C51.1313 17.9697 51.056 17.7992 50.9058 17.6776C50.7579 17.556 50.5421 17.4855 50.2582 17.4666V18.9192ZM48.9592 18.1929C48.9592 18.41 49.0332 18.5795 49.181 18.701C49.3313 18.8226 49.5471 18.8955 49.8287 18.9195V17.4666C49.2489 17.5095 48.9592 17.7516 48.9592 18.1929ZM53.7203 19.4847C53.465 19.4847 53.2347 19.4297 53.0297 19.32C52.8297 19.2129 52.6627 19.0533 52.5466 18.8584C52.4297 18.6605 52.3713 18.44 52.3713 18.1966C52.3713 17.9531 52.4297 17.7337 52.5466 17.5381C52.6613 17.3422 52.8287 17.1822 53.0297 17.0766C53.2347 16.9642 53.465 16.9081 53.7203 16.9081C53.9755 16.9081 54.2058 16.9642 54.4108 17.0766C54.616 17.1863 54.7771 17.3389 54.8939 17.5345C55.0108 17.73 55.0692 17.9508 55.0692 18.1966C55.0692 18.4421 55.0108 18.6629 54.8939 18.8584C54.7778 19.0533 54.6108 19.2129 54.4108 19.32C54.2058 19.4297 53.9755 19.4847 53.7203 19.4847ZM53.7203 19.0768C53.8871 19.0768 54.0376 19.04 54.1711 18.9658C54.3027 18.8914 54.4116 18.7826 54.486 18.651C54.5631 18.5121 54.6026 18.3554 54.6005 18.1966C54.6005 18.0295 54.5624 17.8792 54.486 17.7455C54.413 17.6129 54.3038 17.5037 54.1711 17.4308C54.0336 17.3534 53.878 17.3139 53.7203 17.3163C53.5532 17.3163 53.4029 17.3545 53.2695 17.4308C53.1358 17.5045 53.0308 17.6097 52.9545 17.7455C52.8771 17.8831 52.8376 18.0387 52.84 18.1966C52.84 18.3634 52.8782 18.515 52.9545 18.651C53.0308 18.7845 53.1358 18.8895 53.2695 18.9658C53.4077 19.041 53.5629 19.0792 53.7203 19.0768ZM57.1079 16.9442C57.325 16.9442 57.5134 16.9797 57.6734 17.0513C57.8355 17.1229 57.9597 17.2255 58.0455 17.3592C58.1313 17.4926 58.1742 17.6513 58.1742 17.835C58.1742 18.0166 58.1313 18.175 58.0455 18.311C57.9597 18.4447 57.8355 18.5471 57.6734 18.6189C57.5134 18.6902 57.325 18.726 57.1079 18.726H56.5426V19.4489H56.0774V16.9439H57.1079V16.9442ZM57.0866 18.3324C57.2892 18.3324 57.4432 18.2895 57.5482 18.2034C57.6532 18.1179 57.7055 17.995 57.7055 17.835C57.7055 17.6753 57.6532 17.5524 57.5482 17.4666C57.4432 17.3805 57.2892 17.3376 57.0866 17.3376H56.5426V18.3324H57.0866ZM61.4092 19.4489L61.4055 17.7884L60.5826 19.1626H60.375L59.5518 17.81V19.4489H59.1118V16.9439H59.4947L60.4858 18.6008L61.4663 16.9439H61.8458L61.8529 19.4489H61.4092ZM64.7079 18.8692H63.4555L63.2087 19.4489H62.7292L63.8563 16.9439H64.3145L65.4453 19.4489H64.9584L64.7079 18.8692ZM64.5542 18.5042L64.0818 17.4095L63.6129 18.5042H64.5542ZM68.8816 19.0553V20H68.4521V19.4489H66.3266V16.9439H66.7847V19.0553H68.0479V16.9442H68.5095V19.0553H68.8816ZM69.8047 16.9442H70.2629V18.7226L71.6081 16.9442H72.0413V19.4489H71.5832V17.6739L70.2376 19.4489H69.8047V16.9439V16.9442ZM73.2411 16.9442H73.6989V18.7226L75.0445 16.9442H75.4774V19.4489H75.0195V17.6739L73.6739 19.4489H73.2411V16.9439V16.9442ZM4.10789 10.741H2.81974V14.5771H0V4.55762H2.81974V8.45077H4.17947L6.57 4.55762H9.5471L6.41237 9.39551L9.57553 14.5771H6.38421L4.10789 10.741Z" fill="white"/>
<path d="M17.1605 12.6305H12.9237L12.1368 14.5771H9.245L13.6684 4.55762H16.4595L20.8966 14.5771H17.9479L17.1605 12.6305ZM16.3305 10.5405L15.0421 7.33446L13.7537 10.5405H16.33H16.3305ZM31.4487 4.55762V14.5771H28.6432V6.80472H24.8358V14.5771H22.0447V4.55762H31.4487ZM33.5905 4.55762H36.3816V10.4405L40.5182 4.55762H43.1805V14.5771H40.3895V8.70867L36.2671 14.5771H33.5905V4.55762ZM53.4047 6.80472H50.3418V14.5771H47.5505V6.80472H44.4732V4.55788H53.4047V6.80525V6.80472ZM61.1216 12.6305H56.8847L56.0974 14.5771H53.2061L57.6289 4.55762H60.42L64.8574 14.5771H61.9087L61.1216 12.6305ZM60.2913 10.5405L59.0032 7.33446L57.715 10.5405H60.2913ZM75.4639 4.55762V14.5771H72.6729V6.80472H69.7958L69.7387 8.43656C69.691 9.86814 69.5716 11.0321 69.3808 11.9292C69.1995 12.826 68.8847 13.5226 68.4361 14.0187C67.9876 14.5055 67.3532 14.7487 66.5324 14.7487C66.1508 14.7487 65.7213 14.6916 65.2442 14.5771L65.4016 12.2581C65.5258 12.2871 65.6545 12.3013 65.7882 12.3013C66.1603 12.3013 66.4466 12.1534 66.6468 11.8576C66.8474 11.5616 66.9905 11.1513 67.0763 10.6266C67.1621 10.0924 67.2195 9.40025 67.2482 8.55104L67.3913 4.55762H75.4639Z" fill="white"/>
<path d="M0.0118408 0H9.54605V2.24974H0.0118408V0Z" fill="white"/>
</g>
<defs>
<clipPath id="clip0">
<rect width="75.5263" height="20" fill="white"/>
</clipPath>
</defs>
</svg>
