<svg width="79" height="20" viewBox="0 0 79 20" fill="none" xmlns="http://www.w3.org/2000/svg">
<g clip-path="url(#clip0)">
<path d="M47.805 5.678C46.6601 5.69096 45.5356 5.98289 44.529 6.5285C44.529 3.5635 44.574 0.9885 44.6425 0L38.6125 1.1725V1.724L39.2045 1.793C40.0465 1.908 40.3645 2.414 40.4785 3.54C40.6605 5.724 40.638 17.3795 40.4785 19.2415C42.1637 19.6449 43.8884 19.8607 45.621 19.885C50.3995 19.885 53.289 16.8965 53.289 12.161C53.266 8.391 50.9225 5.678 47.8055 5.678H47.805ZM45.712 18.943C45.369 18.938 45.027 18.908 44.688 18.8505C44.597 17.5405 44.529 12.138 44.5515 7.4255C45.0036 7.26255 45.482 7.18457 45.9625 7.1955C47.942 7.1955 49.057 9.517 49.057 12.414C49.034 16.138 47.669 18.9425 45.712 18.9425V18.943ZM15.9505 5.8155L15.0175 6.0685C14.1755 3.31 12.8785 1.7465 10.444 1.7465H7.304C7.1675 3.5165 7.099 6.4595 7.122 9.5165L9.238 9.448C10.6485 9.402 11.218 8.3445 11.559 6.804H12.355V13.287H11.559C11.2175 11.7235 10.626 10.666 9.215 10.62L7.122 10.551C7.1445 12.873 7.213 14.85 7.304 16.0225C7.4405 17.7465 7.9185 18.505 9.124 18.689L10.194 18.804V19.5855H0V18.805L0.842 18.69C2.048 18.506 2.5255 17.7475 2.662 16.0235C2.8895 13.173 2.935 7.265 2.662 3.9545C2.5255 2.2535 2.048 1.4945 0.842 1.311L0 1.195V0.437H15.8595L15.9505 5.816V5.8155ZM21.0245 5.5165C25.5295 5.5165 27.7595 8.597 27.7595 12.689C27.7595 16.781 25.234 19.9075 20.7285 19.9075C16.2235 19.9075 13.9705 16.8275 13.9705 12.758C13.9705 8.689 16.4965 5.5165 21.0245 5.5165ZM20.797 6.3905C18.7945 6.3905 18.2485 9.103 18.2485 12.712C18.2485 16.3215 19.136 19.034 20.9785 19.034C22.822 19.034 23.527 16.3215 23.527 12.712C23.527 9.103 22.617 6.4135 20.774 6.4135L20.797 6.3905ZM54.381 12.8505C54.381 9.08 56.725 5.5395 61.3895 5.5395C65.1665 5.5395 66.964 8.3675 66.9865 12.0685H58.545C58.454 15.425 60.138 17.9075 63.369 17.9075C64.7795 17.9075 65.553 17.5625 66.418 16.896L66.8045 17.379C65.8715 18.689 63.9145 19.9305 61.321 19.9305C57.248 19.9075 54.381 17.011 54.381 12.8505ZM58.591 11.1255L62.823 11.034C62.8455 9.149 62.5495 6.4365 61.025 6.4365C59.5005 6.4365 58.6135 8.988 58.568 11.103L58.5905 11.126L58.591 11.1255ZM77.8175 9.7695L77.135 9.9535C76.4065 7.5395 75.2915 6.5285 73.6535 6.5285C72.5615 6.5285 71.7875 7.356 71.7875 8.551C71.7875 9.7465 72.675 10.3675 75.2235 11.356C77.772 12.3445 78.5 13.333 78.5 15.264C78.5 18.1375 76.3155 19.9075 72.7205 19.9075C71.0983 19.9007 69.4895 19.613 67.9655 19.057L67.8515 15.08L68.534 14.896C69.5125 17.6775 70.809 18.689 72.516 18.689C74.2225 18.689 74.7685 17.6545 74.7685 16.551C74.7685 15.448 74.154 14.827 71.856 13.9995C69.558 13.172 68.17 12.2755 68.17 9.8615C68.17 7.448 70.2175 5.5165 73.608 5.5165C75.178 5.5165 76.6795 5.7925 77.681 6.2525L77.8175 9.7695ZM38.044 9.6545C36.224 8.4135 34.244 8.965 33.8575 9.6315C33.7255 12.0825 33.741 14.539 33.9025 16.988C33.994 18.1145 34.335 18.62 35.1775 18.735L36.2695 18.804V19.5855H27.873V18.805L28.465 18.736C29.3065 18.621 29.625 18.1155 29.739 16.989C29.9155 14.3485 29.9155 11.699 29.739 9.058C29.648 7.9315 29.3065 7.426 28.465 7.311L27.873 7.242V6.69L33.903 5.5175L33.8345 8.69C35.2455 5.426 38.0215 4.989 39.523 5.9085L38.044 9.6555V9.6545Z" fill="white" fill-opacity="0.2"/>
<path fill-rule="evenodd" clip-rule="evenodd" d="M60.729 2.31699H60.3925L59.589 1.22699L59.358 1.43099V2.31699H59.073V0.0329883H59.358V1.15949L59.553 0.941988L60.36 0.0329883H60.693L59.7965 1.02799L60.729 2.31699ZM62.457 2.31699L62.1845 1.60949H61.2865L61.0165 2.31699H60.729L61.613 0.0234883H61.87L62.753 2.31699H62.457ZM62.1 1.35499L61.846 0.662988L61.7375 0.320988C61.7093 0.436179 61.6768 0.55026 61.64 0.662988L61.383 1.35499H62.1ZM64.4475 2.31749H62.8775V2.09999L64.07 0.288988H62.9145V0.0329883H64.415V0.249988L63.2225 2.06099H64.4475V2.31699V2.31749ZM66.2985 2.31749L66.026 1.60999H65.1275L64.858 2.31749H64.57L65.4545 0.0239883H65.7115L66.594 2.31749H66.2985ZM65.9405 1.35499L65.6865 0.662988L65.578 0.320988C65.5498 0.436179 65.5173 0.55026 65.4805 0.662988L65.2235 1.35499H65.9405ZM68.561 2.31749H68.225L67.421 1.22749L67.1905 1.43149V2.31749H66.9055V0.0329883H67.1905V1.15949L67.3855 0.941988L68.1925 0.0329883H68.5255L67.6285 1.02799L68.561 2.31699V2.31749ZM70.601 2.31749H70.316V1.25249H69.154V2.31749H68.869V0.0329883H69.154V0.997988H70.3155V0.0334883H70.6005V2.31749H70.601ZM72.504 1.70649C72.504 1.90549 72.4325 2.06249 72.2905 2.17699C72.148 2.29199 71.9495 2.34899 71.6955 2.34899C71.427 2.34899 71.2195 2.31299 71.073 2.24099V1.96599C71.169 2.00799 71.274 2.04099 71.388 2.06449C71.502 2.08849 71.609 2.10049 71.708 2.10049C71.8775 2.10049 72.005 2.06749 72.0905 2.00199C72.1322 1.97073 72.1656 1.92983 72.188 1.88281C72.2104 1.83578 72.221 1.78403 72.219 1.73199C72.2218 1.66617 72.2056 1.60093 72.1725 1.54399C72.1322 1.48656 72.0789 1.43945 72.017 1.40649C71.911 1.34905 71.8005 1.30055 71.6865 1.26149C71.4765 1.18449 71.3265 1.09349 71.237 0.988988C71.147 0.883988 71.102 0.748988 71.102 0.583488C71.102 0.404988 71.1685 0.263488 71.3015 0.158488C71.434 0.0534883 71.609 0.000488281 71.8255 0.000488281C72.052 0.000488281 72.26 0.0429883 72.45 0.128488L72.3615 0.375488C72.1675 0.293988 71.9865 0.253488 71.8195 0.253488C71.685 0.253488 71.58 0.282988 71.5045 0.340988C71.4671 0.369592 71.4372 0.406816 71.4174 0.449481C71.3975 0.492145 71.3883 0.538982 71.3905 0.585988C71.3905 0.660988 71.4055 0.723488 71.4345 0.772988C71.4645 0.822988 71.5115 0.867988 71.577 0.907988C71.6425 0.948988 71.7455 0.995488 71.886 1.04749C72.0545 1.10999 72.18 1.17049 72.2625 1.22949C72.345 1.28849 72.406 1.35599 72.445 1.43249C72.4845 1.50899 72.504 1.60049 72.504 1.70699V1.70649ZM73.678 2.31749H73.3915V0.285988H72.6835V0.0329883H74.381V0.285988H73.678V2.31699V2.31749ZM76.0365 2.31749L75.764 1.60999H74.8655L74.5965 2.31749H74.308L75.1925 0.0239883H75.4495L76.3325 2.31749H76.0365ZM75.679 1.35499L75.425 0.662988L75.3165 0.320988C75.2883 0.436179 75.2558 0.55026 75.219 0.662988L74.9615 1.35499H75.679ZM78.439 2.31749H78.1055L76.8925 0.420488H76.88L76.888 0.546988C76.9 0.736488 76.9065 0.900988 76.9065 1.04049V2.31699H76.643V0.0329883H76.973L77.043 0.143488L77.786 1.30349L78.181 1.92349H78.1935C78.1915 1.89849 78.187 1.80899 78.181 1.65549C78.175 1.50199 78.1715 1.39049 78.1715 1.32199V0.0329883H78.438V2.31699L78.439 2.31749Z" fill="white" fill-opacity="0.2"/>
</g>
<defs>
<clipPath id="clip0">
<rect width="78.5" height="20" fill="white"/>
</clipPath>
</defs>
</svg>
