<svg width="30" height="30" viewBox="0 0 30 30" fill="none" xmlns="http://www.w3.org/2000/svg">
<path d="M10 16.4875C10 18.6125 12.9675 20.1813 14.3313 20.7925C14.5414 20.8882 14.7697 20.9378 15.0006 20.9378C15.2316 20.9378 15.4598 20.8882 15.67 20.7925C17.0325 20.1813 20 18.6063 20 16.4875V12.4075C19.9999 12.0645 19.8941 11.7299 19.6971 11.4492C19.5 11.1686 19.2213 10.9554 18.8988 10.8387L16.3538 9.92375C15.4774 9.60875 14.5188 9.60875 13.6425 9.92375L11.1 10.8387C10.7778 10.9561 10.4995 11.1697 10.3027 11.4505C10.106 11.7313 10.0003 12.0659 10 12.4088V16.4875Z" stroke="#FE5244" stroke-linecap="round" stroke-linejoin="round"/>
<path d="M26.25 15C26.25 17.9837 25.0647 20.8452 22.955 22.955C20.8452 25.0647 17.9837 26.25 15 26.25V26.25C12.0163 26.25 9.15483 25.0647 7.04505 22.955C4.93526 20.8452 3.75 17.9837 3.75 15V15C3.75 12.0163 4.93526 9.15483 7.04505 7.04505C9.15483 4.93526 12.0163 3.75 15 3.75V3.75C17.9837 3.75 20.8452 4.93526 22.955 7.04505C25.0647 9.15483 26.25 12.0163 26.25 15V15Z" stroke="#FE5244" stroke-linecap="round" stroke-linejoin="round"/>
</svg>
