<svg width="80" height="12" viewBox="0 0 80 12" fill="none" xmlns="http://www.w3.org/2000/svg">
<path d="M4.41521 11.8207H0V0.163043H4.41521V11.8207Z" fill="#C0C0C0"/>
<path d="M6.47714 0.163043H10.6462L13.9781 6.32609V0.163043H17.2443V11.8207H13.6826L9.75983 4.84239V11.8207H6.47714V0.163043Z" fill="#C0C0C0"/>
<path d="M23.647 0.163043H27.0281V4.61413H30.8853V0.163043H34.25V11.8207H30.8853V7.22283H27.0281V11.8207H23.647V0.163043Z" fill="#C0C0C0"/>
<path d="M39.9125 8.85326C40.5144 9.54891 41.3022 9.89674 42.2761 9.89674C43.2499 9.89674 44.0378 9.54348 44.6396 8.83696C45.2196 8.1413 45.5095 7.20652 45.5095 6.03261V5.90218C45.5095 4.77174 45.225 3.85326 44.656 3.14674C44.0542 2.44022 43.2499 2.08696 42.2433 2.08696C41.2475 2.08696 40.4487 2.42935 39.8469 3.11413C39.267 3.78804 38.977 4.72283 38.977 5.91848V6.04891C38.977 7.2337 39.2888 8.16848 39.9125 8.85326ZM46.6256 10.3043C45.5095 11.4348 44.0433 12 42.2268 12C40.4104 12 38.9496 11.4348 37.8445 10.3043C36.7502 9.21739 36.2031 7.80435 36.2031 6.06522V5.93478C36.2031 4.17391 36.7776 2.75 37.9265 1.66304C39.0645 0.554348 40.5034 0 42.2433 0C44.0268 0 45.4767 0.538043 46.5928 1.61413C47.7199 2.7337 48.2834 4.15217 48.2834 5.86957V6C48.2834 7.75 47.7308 9.18478 46.6256 10.3043Z" fill="#C0C0C0"/>
<path d="M54.9 11.9837C53.4119 11.9837 52.2684 11.5924 51.4696 10.8098C50.6818 10.0272 50.2879 8.88587 50.2879 7.38587V0.163043H52.4873V7.22283C52.4873 8.29891 52.6733 9.07065 53.0453 9.53804C53.4174 10.0054 54.0411 10.2391 54.9165 10.2391C55.8028 10.2391 56.4484 10.0054 56.8532 9.53804C57.2581 9.07065 57.4605 8.25 57.4605 7.07609V0.163043H59.6599V7.25544C59.6599 8.79891 59.2551 9.97283 58.4453 10.7772C57.6466 11.5815 56.4648 11.9837 54.9 11.9837Z" fill="#C0C0C0"/>
<path d="M66.333 11.9674C64.8777 11.9674 63.7944 11.6304 63.0832 10.9565C62.3829 10.2717 61.9725 9.375 61.8521 8.26631H63.2309C63.2856 8.64674 63.3622 8.97826 63.4607 9.26087C63.5701 9.54348 63.7342 9.80978 63.9531 10.0598C64.1829 10.3098 64.4947 10.5 64.8886 10.6304C65.2826 10.7609 65.764 10.8261 66.333 10.8261C67.099 10.8261 67.7336 10.625 68.237 10.2228C68.7513 9.80978 69.0084 9.27717 69.0084 8.625C69.0084 7.95109 68.806 7.45109 68.4011 7.125C68.0072 6.79891 67.2631 6.55435 66.1689 6.39131C64.8449 6.18478 63.8601 5.84783 63.2145 5.38044C62.5689 4.90217 62.2461 4.16848 62.2461 3.17935C62.2461 2.27717 62.6017 1.52717 63.3129 0.929348C64.0242 0.320652 64.9269 0.0163041 66.0212 0.0163041C67.2029 0.0163041 68.1385 0.293478 68.8279 0.847826C69.5282 1.3913 69.9385 2.18478 70.0589 3.22826H68.7786C68.6364 2.48913 68.3464 1.96196 67.9087 1.64674C67.4819 1.32065 66.8528 1.15761 66.0212 1.15761C65.2333 1.15761 64.626 1.33152 64.1993 1.67935C63.7835 2.0163 63.5756 2.47283 63.5756 3.04891C63.5756 3.65761 63.7616 4.11957 64.1336 4.43478C64.5057 4.73913 65.2607 4.97283 66.3987 5.13587C67.7774 5.34239 68.7841 5.70109 69.4187 6.21196C70.0643 6.71196 70.3871 7.4837 70.3871 8.52717C70.3871 9.50544 69.9987 10.3261 69.2218 10.9891C68.4558 11.6413 67.4929 11.9674 66.333 11.9674Z" fill="#C0C0C0"/>
<path d="M72.9586 0.163043H80V0.913043H73.8778V5.46196H79.4939V6.21196H73.8778V11.0707H80V11.8207H72.9586V0.163043Z" fill="#C0C0C0"/>
</svg>
